<?xml version="1.0" encoding="UTF-8"?>
<svg width="92px" height="52px" viewBox="0 0 92 52" version="1.1" xmlns="http://www.w3.org/2000/svg" xmlns:xlink="http://www.w3.org/1999/xlink">
    <!-- Generator: Sketch 50.2 (55047) - http://www.bohemiancoding.com/sketch -->
    <title>nepal</title>
    <desc>Created with Sketch.</desc>
    <defs></defs>
    <g id="Trip-Dispatch-2.0" stroke="none" stroke-width="1" fill="none" fill-rule="evenodd" opacity="0.5">
        <g id="Home" transform="translate(-187.000000, -4276.000000)">
            <g id="know-nepal" transform="translate(98.000000, 4269.000000)">
                <g id="nepal" transform="translate(89.000000, 0.000000)">
                    <rect id="frame" x="0" y="0" width="93" height="66"></rect>
                    <polygon id="Fill-53" stroke="#031F33" stroke-width="2" stroke-linecap="round" stroke-linejoin="round" transform="translate(46.459044, 32.571956) rotate(4.000000) translate(-46.459044, -32.571956) " points="91.3482747 50.0377668 91.3071022 49.5617895 91.2636901 49.3716742 91.1694582 49.199296 90.9215614 48.8629778 90.8257791 48.6921495 90.6602274 48.3053749 90.4402383 47.9454644 90.2080181 47.6554696 90.0643447 47.535442 89.6943082 47.3508372 89.4932689 46.9547635 89.3197927 46.8035667 89.2495065 46.6303275 89.4293566 46.2153112 89.4720796 45.4410732 89.9117133 44.5607563 89.9785541 44.2898763 89.8128301 43.9494252 89.7527078 43.6764787 89.8753642 43.3005531 89.9745919 43.1710542 90.0505631 43.0124525 89.930663 42.8731379 89.847801 42.608113 89.847801 42.3847618 90.1296351 41.8271589 90.8159597 40.7861739 91.0817727 39.8612557 91.2411227 39.5784935 91.3546487 39.29797 91.2988332 38.8443795 91.4316535 38.6408321 91.3200224 38.4450339 90.8962376 38.338955 90.1733917 38.0556762 89.9206713 37.9800778 89.4994706 38.0982111 89.2184978 38.0978667 88.984038 37.9917878 87.99848 37.9217 87.783659 37.8151045 87.5350731 38.0065975 87.3629751 38.3107133 87.1553895 38.5760826 86.8968119 38.7865183 86.5686371 38.9263496 86.2771558 38.9497696 86.0371834 38.8657331 85.5653352 38.7503551 85.0552431 38.960963 84.7802998 38.8920806 84.6795217 38.7124698 84.4097465 38.604841 83.7909518 38.7169471 82.8083224 38.9632016 82.6131402 38.8009836 82.7418261 38.61569 82.7919567 38.465182 82.2448265 38.4991066 82.0027868 38.6961102 81.7436923 38.8342194 81.1061202 38.6831947 80.5446915 38.741056 80.2544162 38.7265907 79.8201229 38.5187381 79.2170048 37.8135547 78.869708 37.4851579 78.5945925 37.3375774 78.2021609 37.3816621 77.8724356 37.430052 77.5888788 37.4076652 77.3490787 37.3077858 77.1721571 37.1257641 77.0748245 36.8595337 76.7673221 36.6379046 75.9884884 36.667524 75.6541118 36.563856 75.570733 36.4148979 75.6117333 36.0846068 75.5655649 35.9511472 75.4105217 35.8256091 75.2093101 35.7097145 74.7946556 35.6199952 74.4082535 35.8784763 74.0728433 35.8447239 73.9212455 35.7178081 73.5956548 35.6496146 73.4587 35.9365097 73.452326 36.1142263 73.4263132 36.2791996 73.3443125 36.4283299 73.1830676 36.6661464 73.1849626 36.8595337 73.1882357 37.1176704 73.118294 37.3274172 72.9682466 37.4879132 72.7315473 37.6013969 72.3258509 37.7866905 71.9613271 37.7188414 71.586467 37.4433118 71.2961917 37.4541608 70.9926515 37.3999159 70.732868 37.1063048 70.1116616 36.9165338 69.6423975 36.6396266 69.4017359 36.1111266 69.542653 35.5993304 69.4201688 35.1100933 68.3762112 36.2296043 68.402224 36.3752905 68.3524379 36.562134 68.331421 36.7250408 68.4606236 36.8576394 68.5577841 37.0493046 68.5303931 37.2671452 68.6582176 37.4176532 68.7210962 37.610696 68.3095426 37.9644071 68.0800787 38.0388001 67.7644796 38.0179631 67.2562824 38.0704859 66.9901249 37.2779941 66.9925367 37.0639421 65.5599374 34.9165338 65.0708622 34.7217689 64.7816205 34.5549013 64.5369968 34.3525593 64.3290666 34.1112988 64.1531787 33.8266423 64.1331953 33.3365442 64.0775521 33.0954558 63.8915002 33.211867 63.8808195 33.4143812 63.5684935 33.5547291 63.1815746 34.0250236 62.8907824 33.8913918 62.6668311 33.7574155 62.1722433 33.673379 61.6757605 33.7160861 61.3543042 33.5721219 61.0068351 33.5242486 60.5928698 33.8609113 60.2342031 33.9134341 60.0173149 33.7350287 59.7451279 33.6938715 59.4355583 33.818893 58.6899727 33.7253852 57.8975297 33.5740162 57.3035419 33.2771331 57.362286 32.8051166 57.3631474 32.5896869 57.6265486 31.7238354 57.6944231 31.3684023 58.0489552 31.0990721 58.2732511 30.354798 57.6523891 30.0710026 57.0227414 29.7415726 56.6225577 29.9494252 56.3496816 30.2702449 55.7138322 30.7798023 55.2147653 30.8125214 54.1942364 30.7587932 53.7129134 30.3301725 52.9966138 30.2113504 52.5699004 29.4789585 52.1712671 29.1335133 51.0592627 28.8266423 50.3419295 28.6888775 50.0314985 27.9669902 49.5224399 27.4179976 48.5198272 27.1431569 47.8507296 26.6993821 47.9156755 25.4596714 47.5504626 25.246136 47.2336576 24.7639593 46.8820541 24.3690911 46.9237435 23.9761171 47.1444216 23.6187897 46.7502673 23.4672485 46.4541348 23.0167577 45.7471378 23.0096972 45.3672819 22.7343399 45.0611577 22.685089 44.6163559 22.5221822 43.9069471 22.834736 43.0709197 23.1521116 42.2576319 23.1648548 41.7644222 23.4393511 41.6347027 23.8152767 41.2040271 24.0284677 40.5066772 23.7989172 40.015707 23.6280888 39.8611806 22.8619445 39.5612582 22.5753938 39.0348003 22.0606702 38.5922381 21.6547808 38.2473531 21.1555557 38.2545884 20.8528176 37.9269305 20.3857951 37.2180384 20.5187381 37.1076132 20.0735857 37.1839289 19.7550046 36.8343926 19.3808011 36.4090574 19.0384556 35.9578817 18.8312919 35.2767252 19.0660086 35.0171139 19.3492874 34.0325895 18.4068042 33.2938948 18.1794923 32.7224744 18.3828676 32.3350386 18.2533687 32.0109983 18.0150356 31.5515536 17.5745328 30.7806443 16.9289327 30.7303414 16.5233876 30.079849 16.4634599 29.0381309 15.4405566 28.2954739 15.2010181 27.9173407 14.9179115 27.4339505 14.6577083 26.8590847 14.4090429 26.0680198 14.2542297 25.1679078 14.0796129 24.7363709 13.7012764 24.6512694 13.3179459 24.9622171 12.6881887 24.503806 12.4576049 24.1804548 12.1417792 24.2722749 11.2142779 23.7918132 10.943398 23.0066054 11.0797851 22.3728232 10.7426058 21.9927951 10.7686089 21.5209469 10.5902035 21.0465147 10.6992099 20.5574395 10.6811283 19.2128703 10.1498729 18.971692 10.0842624 18.6528198 10.1815588 18.5601384 10.371502 18.2012995 10.4632877 18.0658951 10.5991582 17.9406547 11.0233015 17.5247943 11.0241625 17.300843 10.9196335 16.8954911 10.5752216 16.4680887 10.5604119 16.438975 10.7031706 16.4646433 10.8779597 16.4091723 11.0308786 16.2915117 11.1901691 16.2522341 11.3651303 16.2636039 11.7519049 16.3514617 12.02709 16.323554 12.2263323 16.1834983 12.4293632 16.1326785 12.7741195 16.053262 12.9549358 15.9235425 13.1063048 15.749205 13.2142779 15.4251647 13.2247825 15.1348893 13.3101966 15.2184404 13.5633394 15.191394 13.8095939 15.0258423 13.9907546 14.6794068 14.134891 14.695428 14.4452061 14.580696 14.6026024 13.8201229 14.4364236 13.2628287 14.5058226 13.1170881 14.3887226 13.0028729 13.89828 12.9205277 13.7296904 12.6657401 13.3639249 12.5239617 13.0045311 12.3971708 12.7885848 12.2548756 12.604841 11.3068725 12.7401949 11.0057441 12.5027229 10.8982475 12.3675412 10.7216705 12.4798195 10.5295892 12.6821615 10.3729955 12.8133825 10.5211479 13.1083713 10.2994361 13.3985383 9.63533437 13.8386967 9.48098024 13.9792168 9.1490155 14.4415898 8.6599403 14.7722252 8.35708923 15.0183075 8.00565795 15.1559001 7.60668009 15.200157 7.34844701 15.4703482 7.20167277 15.8681439 6.95463725 16.2137613 6.3889018 16.835597 6.15409747 17.0081474 5.49395793 17.1631328 5.20316578 17.3690911 5.04192084 17.6745845 5.04260992 17.9557968 5.14838384 18.2337372 5.29929257 18.529587 5.40024292 18.818032 5.38439406 19.0611868 5.25122917 19.2897041 5.00264322 19.5340644 4.8036711 19.6401433 4.71856961 19.82802 4.66258178 20.0448273 4.34715498 20.2781663 4.14370383 20.4560551 4.03637948 20.6707959 3.64894372 20.864011 3.48718197 21.1386795 3.56832125 21.3239731 3.80140288 21.6857778 3.88323124 22.1324801 4.03792991 22.2614624 4.25171727 22.5273484 4.20658247 22.7839352 3.97918576 23.5090945 3.73456203 23.3919945 3.48718197 23.5745328 3.67340609 24.0369058 3.70200295 24.2070453 3.56470358 24.3534203 3.12093545 24.4064598 2.59103221 24.528726 2.37397171 24.9489085 2.28197941 25.4421064 2.316778 25.8042555 2.22375207 25.9988483 1.88127884 26.1903413 1.70866407 26.3101966 1.57153696 26.4899797 1.49849438 26.6764787 1.46765801 26.8772709 1.4590445 27.0995888 1.52588535 27.5487019 1.7293365 27.6905996 2.02874216 27.7439835 2.38654744 27.9296215 2.75572255 28.3630639 2.9157616 28.4748255 3.51681245 28.5998471 3.70372565 28.7016208 3.88202535 28.9506306 4.05619055 29.0711748 4.34250368 29.1774258 4.64363205 29.725213 4.77059522 29.864872 4.99127339 29.9454644 5.41850357 29.8674551 5.83970429 29.9828331 6.30827933 30.4803361 6.52447848 30.5827987 6.5804663 30.4378013 6.48675129 29.7346843 6.51689859 29.5447412 6.62629018 29.3940609 6.84714063 29.2843657 7.27006405 29.2959035 7.2883247 29.4570883 7.35585463 29.6487536 7.7426013 29.795473 8.15243219 29.8607391 8.5135106 30.3198402 8.62720896 30.4481336 9.16451982 30.6150012 9.34557584 30.7221133 9.76729337 31.1109543 9.95300068 31.211006 10.6124511 31.2469971 10.8605203 31.4743089 10.8760246 31.6411765 10.9290838 31.7966785 11.1354636 31.9280716 11.5313406 32.0183075 11.9177427 31.9714675 12.0857062 32.1557279 12.1074122 32.292976 12.7045009 32.5010008 13.8006564 32.6866389 14.0588895 32.8076997 14.2880089 33.0637699 14.5119602 33.7212523 14.6640748 34.0291565 15.3057814 34.6837114 15.4561733 34.9502862 15.2429028 35.1018274 15.4937282 35.2254713 15.4577238 35.383212 15.7629866 35.4061154 16.0229424 35.2044622 16.0692831 35.0675584 16.3104614 34.9452922 16.561976 35.0251958 16.7978139 35.1760482 16.9966138 35.3666802 17.1390812 35.5693666 17.1926573 35.7284849 17.249851 35.9466699 17.4178145 36.0673862 18.3961372 36.5133997 18.6207775 36.6542641 18.7642786 36.8576394 18.9835787 37.0083196 19.5413897 37.1245586 19.8013455 37.2079063 20.0390784 37.3813177 20.4785397 37.7999504 21.0316995 38.082196 21.3362732 38.2864322 21.6454983 38.4489946 21.9492107 38.4693149 22.2031371 38.3143296 22.6467329 37.8478236 22.9752523 37.7197024 23.5415045 37.7696421 23.7985317 37.845585 24.0340251 38.0174465 24.2397158 38.2122115 24.4295576 38.3091634 24.9105361 38.4782697 26.2318488 39.4489946 27.0878596 39.829742 27.685465 40.3692633 28.1144179 40.4884298 29.060526 40.3913056 30.4529863 40.0716914 30.6948537 40.15745 30.9494691 40.4560551 31.0834954 40.881576 31.1903029 41.7079924 31.3091694 42.1274861 31.5584444 42.3837286 32.9309214 42.466043 33.2068983 42.5452578 33.7150955 42.8001226 34.4148572 42.9544191 35.7673508 42.9447756 36.1737363 43.0894286 36.7234506 43.5020341 36.8604054 43.6411765 36.9877131 43.8519566 37.0569658 44.006942 37.4223509 44.1967129 37.886447 44.078063 38.0716375 43.9094734 38.3107485 43.5924422 38.3860306 43.4541608 38.2335715 43.1171538 38.2340883 42.8541953 38.5784565 42.6552974 39.6177628 42.66253 40.8283057 42.8078719 41.6347027 43.0770298 43.1679078 43.8106272 43.6759327 43.9750838 43.8923041 43.8934582 44.0035907 43.7667146 43.9329599 43.550424 43.6177054 43.2339094 43.5236458 43.0582593 44.2499371 42.9489085 44.5055862 42.8808872 45.08941 42.9943709 45.4422194 42.9826609 45.6775406 42.8404188 46.2363852 42.2234048 46.4577525 42.141607 46.700998 42.3837286 46.924088 42.5407804 47.1904178 42.6361825 47.4112682 43.0064253 47.8507296 42.9871383 48.1093072 43.2959035 48.3177542 43.5598953 48.5573821 43.6981767 51.7381797 44.2190997 52.0653209 44.4228193 52.3445709 44.7928899 52.5251101 45.1951631 52.6288168 45.6069075 52.653796 46.0305342 52.5936737 46.4691427 52.4841098 46.7088534 52.3278607 46.961824 52.2300112 47.2144501 52.2935789 47.4520944 53.7680399 47.8657331 54.0431554 47.7617207 54.3969985 47.7379562 54.5148313 47.9113676 54.7763376 48.0530931 55.3270855 48.2182387 55.5756714 48.3449822 55.7362273 48.556279 55.7992782 48.7870349 55.8921319 48.9866216 56.1472641 49.1054438 56.4256528 49.1571055 56.6020575 49.411626 56.6204904 49.5600675 56.9023245 49.5824543 57.5231864 49.3635805 58.2067547 49.5018619 58.2458601 49.8364581 58.2482719 50.2182387 58.5717954 50.5204601 59.5914629 50.7630983 60.1425554 50.6546086 60.3210273 50.534581 60.4988102 50.3423992 60.6800385 50.1949909 61.0764323 50.257846 61.6757605 50.007803 62.1610457 49.7739473 63.0342835 49.4650098 64.0207029 49.9347877 64.1760906 50.1040661 64.2615367 50.4811972 64.1805697 51.2991755 64.2985748 51.6887053 64.4548239 51.8610835 65.0520848 52.2859156 65.3692343 52.2430363 65.4777645 52.405771 65.5006765 52.5902035 65.9149864 52.5414692 66.7520475 51.9127453 66.9439565 51.812177 67.5982388 51.6752733 67.9350272 51.7748083 68.6974952 52.2029123 69.0744225 52.2595681 69.3293824 52.3145018 69.5228419 52.4493391 69.9635092 52.3060637 70.3822981 52.1769092 70.8064274 52.1772536 70.8906676 52.4099039 71.2875782 52.4686261 71.7154975 52.5769437 72.3920027 52.9062015 72.7315473 53.0289843 73.1201889 53.159172 73.2712699 53.2819549 73.4194223 53.4388345 73.6425123 53.5593787 74.389476 53.8657331 75.161419 54.2864322 75.4802912 54.2451028 75.5533337 54.1147429 75.7876213 53.984383 76.1791915 54.1219755 76.5621482 54.0670418 76.8317512 53.9060293 77.0457108 53.6869833 77.1600982 53.4384901 77.5046387 53.2550907 77.8176537 53.1569333 78.2274846 53.0293287 78.7022614 52.6203396 78.8609222 52.5020341 79.0233731 52.7066148 79.0288857 52.892425 79.1556766 53.4379735 79.2697195 53.7622373 79.4542209 54.1331689 79.7067691 54.4353904 80.0247799 54.5518016 80.6167005 54.4923905 80.9538333 54.3985383 81.1450533 54.6720014 81.2444532 54.8169988 81.8553235 55.0842624 82.1397416 55.0040144 82.3457768 54.6055299 82.4729123 54.4472726 82.7783474 54.2824715 83.1373585 54.1896525 83.5044664 54.1717431 83.8421161 54.2287432 84.6366264 54.6348049 85.0225117 54.7308958 85.424935 54.5690222 85.70608 54.3768403 86.0645744 54.2196163 86.3925769 54.4248858 86.7369451 54.3733962 86.8182566 54.2032567 86.8916438 53.9702621 87.2224026 53.9792168 87.4268874 54.0751355 87.9530007 53.8182042 88.4260547 54.0129692 88.5774803 54.290393 88.8041879 54.5275206 89.1609596 54.7200468 89.3197927 54.8578116 89.662266 54.8207873 90.079849 54.4248858 90.4111247 53.8912195 90.5001884 53.4388345 90.4650452 53.3007253 90.552214 52.9530415 90.7144925 52.4765476 91.2114922 51.6005359 91.3956491 51.1149151 91.4413007 50.8944915 91.4590445 50.6849168 91.4454351 50.4762032"></polygon>
                </g>
            </g>
        </g>
    </g>
</svg>