<?xml version="1.0" encoding="UTF-8"?>
<svg width="66px" height="57px" viewBox="0 0 66 57" version="1.1" xmlns="http://www.w3.org/2000/svg" xmlns:xlink="http://www.w3.org/1999/xlink">
    <!-- Generator: Sketch 50.2 (55047) - http://www.bohemiancoding.com/sketch -->
    <title>pulse</title>
    <desc>Created with Sketch.</desc>
    <defs></defs>
    <g id="Trip-Dispatch-2.0" stroke="none" stroke-width="1" fill="none" fill-rule="evenodd" opacity="0.5">
        <g id="Home" transform="translate(-1100.000000, -4009.000000)">
            <g id="Group-3-Copy" transform="translate(998.000000, 4004.000000)">
                <g id="Group-2">
                    <g id="pulse" transform="translate(102.000000, 0.000000)">
                        <rect id="frame" x="0" y="0" width="66" height="66"></rect>
                        <path d="M47.7951426,5 C41.8899761,5 36.3963408,7.88027907 33,12.6398535 C29.6036592,7.88027907 24.1100239,5 18.2042129,5 C8.16617106,5 0,13.213349 0,23.3085861 C0,27.6789161 2.23135629,32.6783248 6.63219418,38.1684213 C10.0997554,42.4937014 14.1752677,46.2475927 17.3381282,49.0346929 C20.9566701,52.2225432 32.0425535,61.5953608 32.1540569,61.689836 C32.3981719,61.8961259 32.6991665,62 33,62 C33.3008335,62 33.6010225,61.8961259 33.8459431,61.689836 C33.9572854,61.5953608 45.0433299,52.2225432 48.6618718,49.0346929 C51.8247323,46.2475927 55.8996001,42.4937014 59.3671613,38.1684213 C63.7679992,32.6783248 66,27.6789161 66,23.3085861 C66,13.213349 57.8331844,5 47.7951426,5 Z M46.9284134,47.0450414 C43.9160502,49.6999087 35.6699577,56.6889689 33,58.9494062 C30.3293978,56.6889689 22.0833053,49.6999087 19.0707809,47.0456896 C16.6992397,44.955567 11.5027319,40.3757061 7.58206747,35.0863898 L12.3398128,35.0863898 L16.950928,39.7237784 C17.3266879,40.1016794 17.8925835,40.2149524 18.3835528,40.0104451 C18.8751666,39.8054517 19.1954971,39.3236767 19.1954971,38.7887492 L19.1954971,29.4196587 L33.9767823,44.2851656 C34.2286317,44.5384499 34.5647531,44.6726275 34.9065141,44.6726275 C35.0758639,44.6726275 35.2469861,44.6397313 35.4094072,44.5719943 C35.901021,44.3668389 36.2213515,43.8850638 36.2213515,43.3502984 L36.2213515,25.4531576 L46.7622863,36.0548014 C47.0089794,36.3022519 47.3431673,36.441615 47.691857,36.441615 L49.4341776,36.441615 C50.1605607,36.441615 50.7490149,35.8496459 50.7490149,35.1199342 C50.7490149,34.3894122 50.1605607,33.797443 49.4341776,33.797443 L48.2369666,33.797443 L35.8360848,21.3259027 C35.4596804,20.9480018 34.8945904,20.8347288 34.4029765,21.039236 C33.9120073,21.2443915 33.5916768,21.7260045 33.5916768,22.260932 L33.5916768,40.1585589 L18.8102304,25.2924038 C18.433826,24.9145029 17.868736,24.8018781 17.3771222,25.0062233 C16.8861529,25.2107306 16.5658224,25.6931538 16.5658224,26.2274331 L16.5658224,35.5965236 L13.8138486,32.8296796 C13.5678,32.5815809 13.2329676,32.4422178 12.8842779,32.4422178 L5.77932237,32.4422178 C3.90938521,29.4253304 2.62967466,26.2818819 2.62967466,23.3085861 C2.62967466,14.6711519 9.6163593,7.64482022 18.2046963,7.64482022 C23.875899,7.64482022 29.1044721,10.7509972 31.8487117,15.7504058 C32.0804195,16.1720603 32.5209545,16.4334471 33,16.4334471 C33.478401,16.4334471 33.9195805,16.1720603 34.1504827,15.7504058 C36.8955279,10.7509972 42.1234564,7.64482022 47.7951426,7.64482022 C56.3829962,7.64482022 63.3701642,14.6711519 63.3701642,23.3085861 C63.3701642,32.5580836 50.9950635,43.462275 46.9284134,47.0450414 Z" id="Fill-1" fill="#031F33"></path>
                    </g>
                </g>
            </g>
        </g>
    </g>
</svg>