<?xml version="1.0" encoding="UTF-8" standalone="no"?>
<svg xmlns:xlink="http://www.w3.org/1999/xlink" width="170px" height="84px" viewBox="0 0 170 84" version="1.1"
     xmlns="http://www.w3.org/2000/svg">
    <!-- Generator: Sketch 3.8.2 (29753) - http://www.bohemiancoding.com/sketch -->
    <title>mega_logo</title>
    <desc>Created with Sketch.</desc>
    <defs>
        <polygon id="path-1" points="0 83.4206897 169.74529 83.4206897 169.74529 0.578731034 0 0.578731034"></polygon>
    </defs>
    <g id="3.-pages" stroke="none" stroke-width="1" fill="none" fill-rule="evenodd">
        <g id="mai/home/desktop" transform="translate(-40.000000, -45.000000)">
            <g id="logo-section" transform="translate(-4.000000, -30.000000)">
                <g id="mega_logo" transform="translate(44.000000, 75.000000)">
                    <g id="shape" transform="translate(36.552901, 0.579310)">
                        <polygon id="A" fill="#A5CE38" points="62.4939727 0 28.9790239 43.8955034 45.1098771 43.8955034 62.4939727 21.1274483 70.0975563 31.0869517 64.7585119 31.0869517 54.9791604 43.8955034 96.0066007 43.8955034"></polygon>
                        <polygon id="M" fill="#1B75BB" points="38.884802 27.5003255 46.9496485 16.9371807 34.0192048 0.000463448276 0.505416382 43.8953876 16.6356894 43.8953876 34.0192048 21.1273324"></polygon>
                    </g>
                    <g id="type" transform="translate(0.000000, 0.000579)">
                        <g id="Mega-Adventures" transform="translate(0.000000, 50.979310)" fill="#57585A">
                            <path d="M0.442522184,16.0260993 L0.442522184,0.392830345 L5.56689078,0.392830345 L6.95996246,7.04215448 C6.96634471,7.07633379 7.02204437,7.49343724 7.12764164,8.29578207 C7.2326587,9.09754759 7.34231741,9.90163034 7.45777816,10.7062924 C7.54596928,10.104389 7.65620819,9.35823724 7.78849488,8.46841655 C7.92020137,7.57859586 7.9967884,7.08618207 8.01709556,6.99117517 L9.39972355,0.392830345 L14.4730341,0.392830345 L14.4730341,16.0260993 L11.0161741,16.0260993 L11.3318055,3.94632 L8.85084983,16.0260993 L6.06528669,16.0260993 L3.58433106,3.94632 L3.89938225,16.0260993 L0.442522184,16.0260993 L0.442522184,16.0260993 Z" id="Fill-3"></path>
                            <polygon id="Fill-5" points="17.0554676 16.0260993 17.0554676 0.392830345 25.5751945 0.392830345 25.5751945 3.42841655 20.6950922 3.42841655 20.6950922 6.30121655 25.1992218 6.30121655 25.1992218 9.43760276 20.6950922 9.43760276 20.6950922 12.8491614 25.5751945 12.8491614 25.5751945 16.0260993"></polygon>
                            <path d="M37.4609215,7.45809931 L37.4609215,16.0260993 L34.9393515,16.0260993 L34.7768942,15.05112 C34.410785,15.47112 34.005802,15.7839476 33.5619454,15.9907614 C33.1180887,16.1969959 32.614471,16.3001131 32.0516724,16.3001131 C31.4146075,16.3001131 30.8268601,16.1819338 30.2878498,15.9444166 C29.7488396,15.7080579 29.2794539,15.3662648 28.8796928,14.9196166 C28.3847782,14.371589 28.0360751,13.6335476 27.8324232,12.7060717 C27.6293515,11.7797545 27.5272355,10.2092441 27.5272355,7.99627862 C27.5272355,6.41939586 27.5986007,5.15707862 27.7407509,4.20990621 C27.8834812,3.26273379 28.1033788,2.55192 28.4021843,2.07804414 C28.8355973,1.39445793 29.41,0.880030345 30.1253925,0.53534069 C30.8402048,0.190071724 31.6890444,0.0174372414 32.6724915,0.0174372414 C34.2106143,0.0174372414 35.3698635,0.43512 36.1490785,1.27106483 C36.9288737,2.10700966 37.3181911,3.35368552 37.3181911,5.01167172 C37.3181911,5.07307862 37.3152901,5.16576828 37.3083276,5.29089931 C37.3013652,5.41603034 37.2984642,5.51567172 37.2984642,5.59040276 L33.8212969,5.59040276 L33.8212969,5.39749241 C33.8212969,4.49782345 33.7244027,3.85420966 33.5311945,3.46838897 C33.3379863,3.08314759 33.0246758,2.89023724 32.5906826,2.89023724 C32.0754608,2.89023724 31.7215358,3.12717517 31.5283276,3.60105103 C31.3351195,4.07434759 31.2382253,5.18083034 31.2382253,6.91992 L31.2382253,8.46320276 L31.2382253,9.53956138 C31.2382253,11.278651 31.3298976,12.3747062 31.5132423,12.8283062 C31.6960068,13.2819062 32.0348464,13.5084166 32.5297611,13.5084166 C33.0246758,13.5084166 33.3838225,13.3091338 33.6072014,12.9094097 C33.8311604,12.5108441 33.9431399,11.8637545 33.9431399,10.9704579 C33.9431399,10.7676993 33.9413993,10.6118648 33.9379181,10.5041131 C33.9344369,10.3952028 33.929215,10.2909269 33.9228328,10.1889683 L32.4891468,10.1889683 L32.4891468,7.45809931 L37.4609215,7.45809931 Z" id="Fill-7"></path>
                            <path d="M43.2357577,10.2092441 L45.3407406,10.2092441 L44.293471,3.38786483 L43.2357577,10.2092441 Z M38.7113208,16.0260993 L42.1275666,0.392830345 L46.4791024,0.392830345 L49.8547338,16.0260993 L46.194802,16.0260993 L45.7370205,13.0316441 L42.859785,13.0316441 L42.4025836,16.0260993 L38.7113208,16.0260993 Z" id="Fill-9"></path>
                            <path d="M60.2656962,10.2092441 L62.370099,10.2092441 L61.3234096,3.38786483 L60.2656962,10.2092441 Z M55.7412594,16.0260993 L59.1575051,0.392830345 L63.509041,0.392830345 L66.8846724,16.0260993 L63.2247406,16.0260993 L62.766959,13.0316441 L59.8897235,13.0316441 L59.431942,16.0260993 L55.7412594,16.0260993 Z" id="Fill-11"></path>
                            <path d="M71.9984232,3.30618207 L71.9984232,13.1735752 C72.0726894,13.1874786 72.1440546,13.193851 72.2119386,13.193851 L72.5269898,13.193851 C72.9203686,13.193851 73.2470239,13.1399752 73.508116,13.0316441 C73.7692082,12.9233131 73.9809829,12.7506786 74.1440205,12.5137407 C74.2792082,12.3243062 74.3726212,11.9593407 74.4236792,11.4171062 C74.474157,10.8760303 74.499686,9.81299586 74.499686,8.22974069 L74.499686,7.5189269 C74.499686,6.21953379 74.4758976,5.34187862 74.4283208,4.88538207 C74.380744,4.42830621 74.2925529,4.11489931 74.1637474,3.94632 C74.0215973,3.72270621 73.8133038,3.55702345 73.5388669,3.44869241 C73.26443,3.34036138 72.9134061,3.28590621 72.4863754,3.28590621 C72.35757,3.28590621 72.2577747,3.28822345 72.1864096,3.29112 C72.1156246,3.29459586 72.0529625,3.29980966 71.9984232,3.30618207 L71.9984232,3.30618207 Z M68.3181843,16.0260993 L68.3181843,0.392830345 L72.3540887,0.392830345 C73.8318703,0.392830345 74.9267167,0.51969931 75.6380478,0.773437241 C76.349959,1.02717517 76.9156587,1.46223724 77.3363072,2.07804414 C77.661802,2.55887172 77.8921433,3.1793131 78.0279113,3.94110621 C78.163099,4.70232 78.2309829,6.12510621 78.2309829,8.20946483 C78.2309829,10.2944028 78.163099,11.715451 78.0279113,12.473189 C77.8921433,13.2315062 77.661802,13.8536855 77.3363072,14.3408855 C76.9156587,14.9566924 76.349959,15.3917545 75.6380478,15.6454924 C74.9267167,15.8992303 73.8318703,16.0260993 72.3540887,16.0260993 L68.3181843,16.0260993 Z" id="Fill-13"></path>
                            <path d="M82.8469181,16.0260993 L79.3494437,0.392830345 L83.2228908,0.392830345 L84.5753481,8.60513379 C84.6362696,8.97067862 84.7058942,9.45266483 84.7836416,10.0516717 C84.8613891,10.6512579 84.9379761,11.2989269 85.0122423,11.9958372 L85.0429932,11.8029269 C85.2257577,10.1727476 85.3545631,9.11260966 85.4294096,8.62598897 L86.8120375,0.392830345 L90.6756212,0.392830345 L87.1166451,16.0260993 L82.8469181,16.0260993 Z" id="Fill-15"></path>
                            <polygon id="Fill-17" points="92.1194608 16.0260993 92.1194608 0.392830345 100.639188 0.392830345 100.639188 3.42841655 95.7590853 3.42841655 95.7590853 6.30121655 100.263215 6.30121655 100.263215 9.43760276 95.7590853 9.43760276 95.7590853 12.8491614 100.639188 12.8491614 100.639188 16.0260993"></polygon>
                            <path d="M102.906454,16.0260993 L102.906454,0.392830345 L106.71898,0.392830345 L109.759253,10.0366097 C109.63741,8.41222345 109.546898,7.01145103 109.490038,5.8337131 C109.432017,4.65655448 109.403007,3.66129931 109.403007,2.84968552 L109.403007,0.392830345 L112.666659,0.392830345 L112.666659,16.0260993 L108.843689,16.0260993 L105.783689,6.08803034 C105.918877,7.38047172 106.022734,8.63409931 106.093519,9.8489131 C106.164884,11.0643062 106.200857,12.2432028 106.200857,13.3867614 L106.200857,16.0260993 L102.906454,16.0260993 Z" id="Fill-19"></path>
                            <polygon id="Fill-21" points="117.140212 16.0260993 117.140212 3.42841655 114.212498 3.42841655 114.212498 0.392830345 123.891474 0.392830345 123.891474 3.42841655 120.810587 3.42841655 120.810587 16.0260993"></polygon>
                            <path d="M125.386024,0.392656552 L129.08715,0.392656552 L129.08715,10.1887945 C129.08715,11.6712497 129.179983,12.5882979 129.366229,12.9399393 C129.553055,13.29216 129.883191,13.467691 130.357799,13.467691 C130.838788,13.467691 131.171246,13.2852083 131.35401,12.9196634 C131.537355,12.5541186 131.629027,11.6440221 131.629027,10.1887945 L131.629027,0.392656552 L135.258208,0.392656552 L135.258208,10.3718566 C135.258208,11.502091 135.209471,12.3461462 135.110836,12.9046014 C135.012782,13.4630566 134.851485,13.9485186 134.628106,14.3609876 C134.255034,15.065429 133.716024,15.5815945 133.011655,15.9094841 C132.306706,16.2379531 131.388242,16.4018979 130.256263,16.4018979 C129.212474,16.4018979 128.361314,16.2478014 127.703942,15.9396083 C127.04657,15.6319945 126.524966,15.1395807 126.138549,14.4629462 C125.860051,13.9821186 125.665102,13.366891 125.553703,12.6155255 C125.442304,11.86416 125.386024,10.594891 125.386024,8.80829793 L125.386024,0.392656552 Z" id="Fill-23"></path>
                            <path d="M141.419287,6.89970207 C141.480208,6.89970207 141.559696,6.90375724 141.658331,6.91012966 C141.756386,6.91650207 141.829491,6.91997793 141.876488,6.91997793 C142.635976,6.91997793 143.172666,6.76761931 143.488297,6.46348138 C143.803348,6.15934345 143.961164,5.64491586 143.961164,4.92019862 C143.961164,4.25051586 143.803348,3.77490207 143.488297,3.49393655 C143.172666,3.21355034 142.635976,3.07335724 141.876488,3.07335724 C141.829491,3.07335724 141.756386,3.07625379 141.658331,3.08320552 C141.559696,3.09015724 141.480208,3.0936331 141.419287,3.0936331 L141.419287,6.89970207 Z M137.799969,16.0261572 L137.799969,0.392888276 L141.917102,0.392888276 C143.266659,0.392888276 144.245464,0.455453793 144.85584,0.580584828 C145.466215,0.706295172 145.960549,0.92121931 146.340003,1.22535724 C146.787341,1.59090207 147.120959,2.04102621 147.341437,2.57515034 C147.561915,3.1104331 147.671573,3.74651586 147.671573,4.48397793 C147.671573,5.38422621 147.514338,6.13848828 147.199287,6.74734345 C146.884235,7.35677793 146.393962,7.85730207 145.730208,8.25007448 C146.862188,8.75059862 147.458638,9.93876414 147.51956,11.8128331 L147.51956,11.8638124 C147.525942,12.0601986 147.532904,12.34464 147.539867,12.7165572 C147.567137,14.4765021 147.858399,15.5789297 148.414235,16.0261572 L144.134065,16.0261572 C144.038911,15.7011641 143.969287,15.361109 143.925191,15.0059917 C143.881096,14.6508745 143.859628,14.2702676 143.859628,13.8635917 C143.859628,13.613909 143.86601,13.3103503 143.879355,12.9552331 C143.89328,12.6001159 143.899662,12.3678124 143.899662,12.2600607 C143.899662,11.3053572 143.774338,10.6530538 143.523689,10.3008331 C143.273041,9.94919172 142.822222,9.77308138 142.171812,9.77308138 L141.419287,9.77308138 L141.419287,16.0261572 L137.799969,16.0261572 Z" id="Fill-25"></path>
                            <polygon id="Fill-27" points="150.000515 16.0260993 150.000515 0.392830345 158.520823 0.392830345 158.520823 3.42841655 153.64014 3.42841655 153.64014 6.30121655 158.14427 6.30121655 158.14427 9.43760276 153.64014 9.43760276 153.64014 12.8491614 158.520823 12.8491614 158.520823 16.0260993"></polygon>
                            <path d="M160.309942,10.7268579 L163.664686,10.7268579 L163.664686,11.1839338 C163.664686,12.043051 163.766802,12.6490097 163.969874,13.0012303 C164.172945,13.3528717 164.515266,13.5289821 164.996836,13.5289821 C165.383253,13.5289821 165.68844,13.3951614 165.911819,13.1280993 C166.135198,12.8610372 166.247177,12.4972303 166.247177,12.0366786 C166.247177,11.2783614 165.701785,10.5507476 164.61042,9.85383724 C164.434038,9.73218207 164.29827,9.64065103 164.203696,9.57982345 C164.169464,9.55954759 164.112604,9.52247172 164.030795,9.46801655 C162.559976,8.48029241 161.644993,7.73587862 161.285846,7.23535448 C161.027655,6.85590621 160.831546,6.42953379 160.695778,5.95623724 C160.56059,5.48236138 160.492706,4.96445793 160.492706,4.4025269 C160.492706,3.03593379 160.888986,1.96305103 161.682126,1.18445793 C162.475266,0.407023448 163.566631,0.0177268966 164.956222,0.0177268966 C166.467075,0.0177268966 167.621683,0.400071724 168.418304,1.16418207 C169.214345,1.92887172 169.612365,3.03593379 169.612365,4.48420966 C169.612365,4.54503724 169.608884,4.62961655 169.602502,4.73736828 C169.595539,4.84627862 169.592058,4.93027862 169.592058,4.99168552 L166.308099,4.99168552 L166.308099,4.79877517 C166.308099,4.11518897 166.201341,3.59728552 165.987826,3.24564414 C165.774311,2.89400276 165.464481,2.71789241 165.057758,2.71789241 C164.711956,2.71789241 164.434038,2.84128552 164.224003,3.08807172 C164.013969,3.33485793 163.908952,3.66158897 163.908952,4.06768552 C163.908952,4.73099586 164.504823,5.43485793 165.698304,6.17869241 C165.9153,6.32120276 166.081239,6.42953379 166.1967,6.50426483 C166.291273,6.55872 166.42356,6.64272 166.59298,6.75742345 C167.874072,7.57019586 168.693901,8.25320276 169.053048,8.80818207 C169.277007,9.16735448 169.448167,9.57518897 169.566529,10.0316855 C169.685471,10.4887614 169.745232,10.9840717 169.745232,11.5187752 C169.745232,13.0817545 169.338509,14.28672 168.524481,15.1325131 C167.711614,15.9783062 166.548884,16.4017821 165.037451,16.4017821 C163.451171,16.4017821 162.26001,15.9974234 161.463389,15.1887062 C160.666768,14.379989 160.269328,13.1767614 160.269328,11.5801821 C160.269328,11.4782234 160.271068,11.3716303 160.273969,11.2598234 C160.277451,11.1485959 160.289635,10.9707476 160.309942,10.7268579" id="Fill-29"></path>
                        </g>
                        <g id="International">
                            <mask id="mask-2" fill="white">
                                <use xlink:href="#path-1"></use>
                            </mask>
                            <g id="Clip-32"></g>
                            <polygon id="Fill-31" fill="#57585A" mask="url(#mask-2)" points="0 83.1756414 2.38522184 83.1756414 2.38522184 72.9873103 0 72.9873103"></polygon>
                            <path d="M10.8267372,83.1757572 L10.8267372,72.9874262 L13.3111741,72.9874262 L15.2925734,79.2723641 C15.2130853,78.2139641 15.1544846,77.300971 15.1167713,76.5333848 C15.0796382,75.7663779 15.0604915,75.1181297 15.0604915,74.58864 L15.0604915,72.9874262 L17.1875222,72.9874262 L17.1875222,83.1757572 L14.6961229,83.1757572 L12.7013788,76.6984883 C12.7901502,77.5413848 12.8574539,78.3587917 12.9038703,79.1501297 C12.9502867,79.9420469 12.9734949,80.7102124 12.9734949,81.4557848 L12.9734949,83.1757572 L10.8267372,83.1757572 Z" id="Fill-33" fill="#57585A" mask="url(#mask-2)"></path>
                            <polygon id="Fill-34" fill="#57585A" mask="url(#mask-2)" points="26.8877338 83.1757572 26.8877338 74.965771 24.9800205 74.965771 24.9800205 72.9874262 31.2874266 72.9874262 31.2874266 74.965771 29.2799181 74.965771 29.2799181 83.1757572"></polygon>
                            <polygon id="Fill-35" fill="#57585A" mask="url(#mask-2)" points="39.0465631 83.1757572 39.0465631 72.9874262 44.5991229 72.9874262 44.5991229 74.965771 41.4184403 74.965771 41.4184403 76.8381021 44.3536962 76.8381021 44.3536962 78.8824883 41.4184403 78.8824883 41.4184403 81.1053021 44.5991229 81.1053021 44.5991229 83.1757572"></polygon>
                            <path d="M55.2206416,77.2282097 C55.2600956,77.2282097 55.312314,77.2305269 55.3761365,77.2351614 C55.439959,77.2397959 55.4875358,77.2409545 55.5188669,77.2409545 C56.0132014,77.2409545 56.3636451,77.1424717 56.5690375,76.9437683 C56.77443,76.7450648 56.8771263,76.4102234 56.8771263,75.9380855 C56.8771263,75.5018648 56.77443,75.1913545 56.5690375,75.0088717 C56.3636451,74.8258097 56.0132014,74.7336993 55.5188669,74.7336993 C55.4875358,74.7336993 55.439959,74.7360166 55.3761365,74.740651 C55.312314,74.7452855 55.2600956,74.7476028 55.2206416,74.7476028 L55.2206416,77.2282097 Z M52.861529,83.175989 L52.861529,72.9876579 L55.5449761,72.9876579 C56.4239863,72.9876579 57.0627918,73.0282097 57.4602321,73.1098924 C57.8576724,73.1915752 58.179686,73.331189 58.4274334,73.5298924 C58.7192765,73.767989 58.936273,74.0616993 59.0801638,74.4098648 C59.2234744,74.7580303 59.2954198,75.1728166 59.2954198,75.6536441 C59.2954198,76.2404855 59.1927235,76.73232 58.9873311,77.1291476 C58.7819386,77.5259752 58.4628259,77.8521269 58.0299932,78.1081821 C58.7674334,78.4343338 59.1561706,79.2088717 59.1962048,80.4300579 L59.1962048,80.4630786 C59.2002662,80.5916855 59.2049078,80.7764855 59.2089693,81.0192166 C59.2269556,82.1656717 59.4166826,82.8845959 59.7793106,83.175989 L56.989686,83.175989 C56.9276041,82.9639614 56.8823481,82.7426648 56.8539181,82.5109407 C56.8249078,82.2792166 56.8109829,82.0312717 56.8109829,81.7665269 C56.8109829,81.6037407 56.8150444,81.4061959 56.8243276,81.1744717 C56.8330307,80.9427476 56.8370922,80.7915476 56.8370922,80.7208717 C56.8370922,80.0992717 56.7552833,79.6740579 56.5922457,79.444651 C56.428628,79.2152441 56.1350444,79.0999614 55.7109147,79.0999614 L55.2206416,79.0999614 L55.2206416,83.175989 L52.861529,83.175989 Z" id="Fill-36" fill="#57585A" mask="url(#mask-2)"></path>
                            <path d="M67.5978601,83.1757572 L67.5978601,72.9874262 L70.0822969,72.9874262 L72.0636962,79.2723641 C71.9842082,78.2139641 71.9256075,77.300971 71.8878942,76.5333848 C71.8507611,75.7663779 71.8316143,75.1181297 71.8316143,74.58864 L71.8316143,72.9874262 L73.9586451,72.9874262 L73.9586451,83.1757572 L71.4672457,83.1757572 L69.4725017,76.6984883 C69.561273,77.5413848 69.6285768,78.3587917 69.6749932,79.1501297 C69.7214096,79.9420469 69.7446177,80.7102124 69.7446177,81.4557848 L69.7446177,83.1757572 L67.5978601,83.1757572 Z" id="Fill-37" fill="#57585A" mask="url(#mask-2)"></path>
                            <path d="M84.6263481,79.3847503 L85.9979522,79.3847503 L85.3156314,74.9391228 L84.6263481,79.3847503 Z M81.6777474,83.1757572 L83.9039932,72.9874262 L86.7400341,72.9874262 L88.9395904,83.1757572 L86.5543686,83.1757572 L86.2567235,81.2240607 L84.3815017,81.2240607 L84.0826962,83.1757572 L81.6777474,83.1757572 Z" id="Fill-38" fill="#57585A" mask="url(#mask-2)"></path>
                            <polygon id="Fill-39" fill="#57585A" mask="url(#mask-2)" points="97.4211399 83.1757572 97.4211399 74.965771 95.5128464 74.965771 95.5128464 72.9874262 101.820833 72.9874262 101.820833 74.965771 99.8133242 74.965771 99.8133242 83.1757572"></polygon>
                            <polygon id="Fill-40" fill="#57585A" mask="url(#mask-2)" points="109.579795 83.1756414 111.965017 83.1756414 111.965017 72.9873103 109.579795 72.9873103"></polygon>
                            <path d="M124.600717,79.001189 L124.600717,77.1618786 C124.600717,76.0328028 124.528771,75.3353131 124.385461,75.068251 C124.24215,74.801189 123.982799,74.6679476 123.606826,74.6679476 C123.240137,74.6679476 122.986587,74.8046648 122.845017,75.0780993 C122.703447,75.3515338 122.632662,76.0461269 122.632662,77.1618786 L122.632662,79.001189 C122.632662,80.1036166 122.703447,80.7953131 122.845017,81.07512 C122.986587,81.3555062 123.244778,81.4956993 123.620171,81.4956993 C123.990922,81.4956993 124.247372,81.3584028 124.388942,81.0855476 C124.529932,80.8115338 124.600717,80.1169407 124.600717,79.001189 M120.201024,78.0818234 C120.201024,76.8554234 120.245119,75.960389 120.333891,75.3955614 C120.422082,74.8313131 120.567713,74.3898786 120.770785,74.0724166 C121.062048,73.6228717 121.444983,73.2886097 121.91727,73.0702097 C122.389556,72.8518097 122.957577,72.74232 123.620171,72.74232 C124.286826,72.74232 124.853686,72.8518097 125.31959,73.0702097 C125.785495,73.2886097 126.164369,73.6228717 126.455631,74.0724166 C126.668567,74.3945131 126.818259,74.8382648 126.907031,75.4019338 C126.995222,75.9667614 127.039317,76.8600579 127.039317,78.0818234 C127.039317,79.2989545 126.995222,80.1910924 126.907031,80.7576579 C126.818259,81.3248028 126.668567,81.7685545 126.455631,82.090651 C126.16901,82.53672 125.790137,82.8692441 125.31959,83.0899614 C124.849625,83.3106786 124.282765,83.4207476 123.620171,83.4207476 C122.957577,83.4207476 122.389556,83.3106786 121.91727,83.0899614 C121.444983,82.8692441 121.062048,82.53672 120.770785,82.090651 C120.567713,81.773189 120.422082,81.3317545 120.333891,80.7675062 C120.245119,80.2032579 120.201024,79.3076441 120.201024,78.0818234" id="Fill-41" fill="#57585A" mask="url(#mask-2)"></path>
                            <path d="M135.281823,83.1757572 L135.281823,72.9874262 L137.766259,72.9874262 L139.747659,79.2723641 C139.66759,78.2139641 139.60957,77.300971 139.571857,76.5333848 C139.534143,75.7663779 139.515577,75.1181297 139.515577,74.58864 L139.515577,72.9874262 L141.642608,72.9874262 L141.642608,83.1757572 L139.151208,83.1757572 L137.156464,76.6984883 C137.245235,77.5413848 137.312539,78.3587917 137.358956,79.1501297 C137.405372,79.9420469 137.42858,80.7102124 137.42858,81.4557848 L137.42858,83.1757572 L135.281823,83.1757572 Z" id="Fill-42" fill="#57585A" mask="url(#mask-2)"></path>
                            <path d="M152.310601,79.3847503 L153.681625,79.3847503 L152.999304,74.9391228 L152.310601,79.3847503 Z M149.362,83.1757572 L151.588246,72.9874262 L154.424287,72.9874262 L156.623843,83.1757572 L154.238621,83.1757572 L153.940396,81.2240607 L152.065174,81.2240607 L151.766949,83.1757572 L149.362,83.1757572 Z" id="Fill-43" fill="#57585A" mask="url(#mask-2)"></path>
                            <polygon id="Fill-44" fill="#57585A" mask="url(#mask-2)" points="169.597164 83.1757572 164.342829 83.1757572 164.342829 72.9874262 166.728631 72.9874262 166.728631 81.1180469 169.597164 81.1180469"></polygon>
                        </g>
                    </g>
                </g>
            </g>
        </g>
    </g>
</svg>