<?xml version="1.0" encoding="UTF-8"?>
<svg width="66px" height="46px" viewBox="0 0 66 46" version="1.1" xmlns="http://www.w3.org/2000/svg" xmlns:xlink="http://www.w3.org/1999/xlink">
    <!-- Generator: Sketch 50.2 (55047) - http://www.bohemiancoding.com/sketch -->
    <title>rain</title>
    <desc>Created with Sketch.</desc>
    <defs></defs>
    <g id="Trip-Dispatch-2.0" stroke="none" stroke-width="1" fill="none" fill-rule="evenodd" opacity="0.5">
        <g id="Home" transform="translate(-500.000000, -4279.000000)">
            <g id="Season" transform="translate(398.000000, 4269.000000)">
                <g id="rain" transform="translate(102.000000, 0.000000)">
                    <rect id="frame" x="0" y="0" width="66" height="66"></rect>
                    <path d="M60.6435691,37.3297626 C60.4371906,36.7512394 59.8047777,36.4506725 59.2305015,36.6587173 C58.656612,36.8666322 58.3584524,37.5045411 58.5648309,38.0831942 C58.8791038,38.9646234 59.0385605,39.8916639 59.0385605,40.8384563 C59.0385605,45.3290281 55.4146261,48.9822227 50.9600216,48.9822227 C46.505417,48.9822227 42.8813537,45.3290281 42.8813537,40.8384563 C42.8813537,36.3477546 46.505417,32.69456 50.9600216,32.69456 C53.1956383,32.69456 55.35172,33.6413525 56.8756467,35.2920667 C57.2912397,35.7422025 57.9900391,35.7675421 58.4366984,35.3485936 C58.8832287,34.9296451 58.9083654,34.2252035 58.4927725,33.7749378 C56.5526083,31.6730482 53.8069105,30.4675317 50.9600216,30.4675317 C45.2872553,30.4675317 40.6722917,35.1198872 40.6722917,40.8384563 C40.6722917,46.5568955 45.2872553,51.2092511 50.9600216,51.2092511 C56.6327878,51.2092511 61.2477515,46.5568955 61.2477515,40.8384563 C61.2477515,39.6342393 61.0444667,38.4536726 60.6435691,37.3297626 M50.9600216,53.7728417 C43.8850158,53.7728417 38.1292341,47.9704569 38.1292341,40.8384563 C38.1292341,33.7063259 43.8851448,27.9039411 50.9600216,27.9039411 C58.0348984,27.9039411 63.7909379,33.7063259 63.7909379,40.8384563 C63.7909379,47.9704569 58.0348984,53.7728417 50.9600216,53.7728417 Z M30.0799569,35.6531889 L35.9200431,35.6531889 L35.9200431,33.6045775 L30.0799569,33.6045775 L30.0799569,35.6531889 Z M15.0399784,53.7728417 C7.96510163,53.7728417 2.20906209,47.9705868 2.20906209,40.8385863 C2.20906209,33.7064558 7.96510163,27.904071 15.0399784,27.904071 C22.1149842,27.904071 27.8707659,33.7064558 27.8707659,40.8385863 C27.8707659,47.9705868 22.1148552,53.7728417 15.0399784,53.7728417 Z M24.0168632,12.8201056 C24.4350343,12.4419604 24.9772129,12.2268984 25.5566454,12.2268984 C26.8326859,12.2268984 27.8707659,13.27349 27.8707659,14.5598334 L27.8707659,15.7170098 C26.850346,14.4561359 25.5285439,13.4533364 24.0168632,12.8201056 Z M30.0796991,31.3776791 L35.9199142,31.3776791 L35.9199142,24.7539005 L30.0796991,24.7539005 L30.0796991,31.3776791 Z M38.1291052,14.5598334 C38.1291052,13.27349 39.1671852,12.2268984 40.4432257,12.2268984 C41.0244628,12.2268984 41.5684462,12.4432599 41.9844258,12.8194559 C40.4722295,13.4526867 39.1497829,14.455876 38.1291052,15.7170098 L38.1291052,14.5598334 Z M52.2191754,17.9459873 C52.3516907,18.1628685 55.1123416,22.8297782 57.7683208,27.3219093 C55.7228404,26.2706396 53.4088488,25.6770426 50.9598927,25.6770426 C45.5368173,25.6770426 40.7754165,28.585772 38.1291052,32.936391 L38.1291052,21.9632929 C38.1291052,17.7337842 41.5422782,14.2930526 45.7379107,14.2930526 C48.3982727,14.2930526 50.8210609,15.6586636 52.2191754,17.9459873 Z M54.1000428,16.7776356 C52.2966479,13.8274532 49.1706774,12.0660243 45.7380396,12.0660243 C45.2483257,12.0660243 44.7673774,12.103449 44.2966127,12.1736202 C44.296226,12.1727106 44.2950658,12.1708914 44.2945502,12.1702416 C43.4628487,10.8113879 42.0230976,10 40.4433546,10 C37.9492813,10 35.920172,12.0454927 35.920172,14.5598334 L35.920172,22.527132 L30.0799569,22.527132 L30.0799569,14.5598334 C30.0799569,12.0454927 28.0507187,10 25.5566454,10 C23.9798672,10 22.5428232,10.8083991 21.7036451,12.1736202 C21.2330093,12.103449 20.7518032,12.0660243 20.2619604,12.0660243 C16.8293226,12.0660243 13.7033521,13.8274532 11.8998283,16.7778955 C11.8749495,16.8185688 11.7992816,16.9425381 9.98144925,20.0144806 C9.66885221,20.5425844 9.84029719,21.2261046 10.3641712,21.5410957 C10.8880451,21.8560867 11.5660907,21.6835174 11.8785588,21.1552836 C13.3745129,18.6275583 13.7386724,18.0147292 13.7808246,17.9458574 C15.1789391,15.6584037 17.6018562,14.2927928 20.2620893,14.2927928 C24.4577218,14.2927928 27.8708948,17.7336542 27.8708948,21.963033 L27.8708948,32.9362611 C25.2245835,28.5855121 20.4631827,25.6769127 15.0402362,25.6769127 C12.5911512,25.6769127 10.2771596,26.2705097 8.23180814,27.3216494 C8.75710008,26.4332031 9.31204041,25.4945973 9.86891432,24.5532627 C10.1812536,24.0250289 10.0098086,23.3413787 9.48580569,23.0265176 C8.96180281,22.7116565 8.28388616,22.8844858 7.97141802,23.4127195 C5.62455542,27.3805153 1.93075404,33.3341582 1.46411433,34.3170759 C0.525936473,36.2934368 0,38.5051315 0,40.8385863 C0,49.1985841 6.74693995,56 15.0399784,56 C23.3331458,56 30.0799569,49.1985841 30.0799569,40.8385863 L30.0799569,37.8800873 L35.9200431,37.8800873 L35.9200431,40.8385863 C35.9200431,49.1985841 42.667112,56 50.9600216,56 C59.2530601,56 66,49.1985841 66,40.8385863 C66,38.4408078 65.4448019,36.1716767 64.457253,34.1542525 C64.0058242,33.2318901 54.3449642,17.1785215 54.1000428,16.7776356 Z M15.0399784,48.9823527 C10.5853739,48.9823527 6.96143953,45.3291581 6.96143953,40.8385863 C6.96143953,36.3478846 10.5853739,32.69469 15.0399784,32.69469 C19.4947119,32.69469 23.1186463,36.3478846 23.1186463,40.8385863 C23.1186463,45.3291581 19.4944541,48.9823527 15.0399784,48.9823527 Z M15.0399784,30.4676616 C9.36734108,30.4676616 4.75224853,35.1200172 4.75224853,40.8385863 C4.75224853,46.5571554 9.36734108,51.209381 15.0399784,51.209381 C20.7127447,51.209381 25.3278373,46.5571554 25.3278373,40.8385863 C25.3278373,35.1200172 20.7126158,30.4676616 15.0399784,30.4676616 Z" id="Fill-4" fill="#031F33"></path>
                </g>
            </g>
        </g>
    </g>
</svg>