<?xml version="1.0" encoding="UTF-8"?>
<svg width="76px" height="48px" viewBox="0 0 76 48" version="1.1" xmlns="http://www.w3.org/2000/svg" xmlns:xlink="http://www.w3.org/1999/xlink">
    <!-- Generator: Sketch 50.2 (55047) - http://www.bohemiancoding.com/sketch -->
    <title>peak</title>
    <desc>Created with Sketch.</desc>
    <defs></defs>
    <g id="Trip-Dispatch-2.0" stroke="none" stroke-width="1" fill="none" fill-rule="evenodd" opacity="0.501227679">
        <g id="Home" transform="translate(-795.000000, -4278.000000)">
            <g id="Group-14" transform="translate(698.000000, 4269.000000)">
                <g id="peak" transform="translate(97.000000, 0.000000)">
                    <g id="Layer_1">
                        <rect id="Rectangle-path" x="0" y="0" width="76" height="66"></rect>
                        <path d="M38.3011902,27.3969227 L30.2626188,42.9917882 L34.1409203,47.5676689 C34.7218456,48.2510533 34.6376488,49.2774315 33.9536718,49.858959 C33.266444,50.446995 32.2440545,50.3578296 31.6615038,49.6715164 L27.1159299,44.3087403 C27.0917351,44.2820495 27.0685101,44.2546371 27.0462718,44.2265592 L17.8376271,33.3623863 L2.9897355,56.2593415 C2.67830493,56.7393377 2.15621985,57 1.62438224,57 C1.32107877,57 1.01484954,56.9140888 0.740153468,56.7360835 C-0.0120911607,56.2466501 -0.226646673,55.2391463 0.262279827,54.4861219 L16.299004,29.7554186 C16.5782513,29.3248865 17.0466975,29.0515327 17.5593551,29.0180144 C18.0326776,28.9753842 18.5690663,29.1960197 18.9026026,29.5884776 L27.9876658,40.3076457 L36.5592492,23.6803297 C36.5680917,23.6623659 36.5772781,23.6445432 36.5868073,23.6268719 L43.6746619,9.8777205 C43.9383051,9.36778561 44.4525882,9.03390354 45.023761,9.00071059 C45.5985097,8.98476495 46.1475767,9.23761716 46.4681097,9.71566078 L56.606076,24.7847777 C56.6174067,24.8009732 56.6284098,24.8173312 56.6390859,24.8338437 L75.7224286,53.1994068 C76.2240334,53.9462482 76.0273575,54.9566808 75.2812895,55.4588056 C75.0017172,55.6462482 74.6873608,55.7350881 74.3730045,55.7350881 C73.8522198,55.7350881 73.3379367,55.4841884 73.0239055,55.0168837 L55.0588307,28.3141289 L51.9122932,31.6422103 C51.6044386,31.967306 51.1759777,32.1498672 50.7315878,32.1498672 C50.7124078,32.1498672 50.6968038,32.1498672 50.6776238,32.1482401 C50.210803,32.1339216 49.7761656,31.9194691 49.4806641,31.5602041 L45.7282182,27.0222067 L43.2140177,30.3512647 C42.9123397,30.7547869 42.4393423,30.9933206 41.9344867,30.9978764 C41.4393836,31.0375778 40.9533828,30.7739867 40.6393516,30.3766475 L38.3011902,27.3969227 Z M39.9405783,24.2165022 L41.893201,26.7065482 L44.3758683,23.4204457 C44.6742956,23.0231065 45.1378655,22.7848983 45.6362194,22.773834 C46.0360729,22.7943355 46.6075708,22.9804764 46.9219271,23.363497 L50.8141591,28.0700627 L53.1977063,25.5478087 L45.3030082,13.8133635 L39.9405783,24.2165022 Z" id="Combined-Shape" fill="#031F33"></path>
                    </g>
                </g>
            </g>
        </g>
    </g>
</svg>