<?xml version="1.0" encoding="UTF-8"?>
<svg width="66px" height="60px" viewBox="0 0 66 60" version="1.1" xmlns="http://www.w3.org/2000/svg" xmlns:xlink="http://www.w3.org/1999/xlink">
    <!-- Generator: Sketch 50.2 (55047) - http://www.bohemiancoding.com/sketch -->
    <title>rain</title>
    <desc>Created with Sketch.</desc>
    <defs></defs>
    <g id="Trip-Dispatch-2.0" stroke="none" stroke-width="1" fill="none" fill-rule="evenodd" opacity="0.5">
        <g id="Home" transform="translate(-500.000000, -4007.000000)">
            <g id="Season" transform="translate(398.000000, 4004.000000)">
                <g id="rain" transform="translate(102.000000, 0.000000)">
                    <rect id="frame" x="0" y="0" width="66" height="66"></rect>
                    <path d="M46.454625,16.203375 C51.9616875,16.3389375 56.4001875,20.860875 56.4001875,26.4001875 C56.4001875,31.672875 52.344,36.0871875 47.12175,36.5566875 C47.019375,36.5851875 46.9115625,36.5998125 46.800375,36.5998125 L39.5998125,36.5998125 C38.937,36.5998125 38.4001875,36.063 38.4001875,35.4001875 C38.4001875,34.737375 38.937,34.200375 39.5998125,34.200375 L46.5703125,34.200375 C46.6194375,34.19025 46.669875,34.1835 46.72125,34.1806875 C50.8029375,33.9118125 54,30.4944375 54,26.4001875 C54,22.0993125 50.50125,18.5998125 46.199625,18.5998125 C46.081875,18.5998125 45.9579375,18.6035625 45.8225625,18.610125 C45.359625,18.6298125 44.920875,18.3830625 44.704125,17.97075 C43.3483125,15.3976875 40.702875,13.800375 37.800375,13.800375 C37.00125,13.800375 36.2124375,13.920375 35.455875,14.1585 C34.952625,14.3173125 34.4055,14.12775 34.106625,13.6933125 C32.0881875,10.7548125 28.7578125,9 25.199625,9 C21.6759375,9 18.3646875,10.7293125 16.34175,13.62525 C16.0569375,14.0325 15.5514375,14.2228125 15.0688125,14.1028125 C14.2610625,13.9021875 13.4304375,13.800375 12.5998125,13.800375 C6.9755625,13.800375 2.4001875,18.37575 2.4001875,24 C2.4001875,29.62425 6.9755625,34.199625 12.5998125,34.199625 L15.5998125,34.199625 C16.262625,34.199625 16.800375,34.737375 16.800375,35.4001875 C16.800375,36.063 16.262625,36.5998125 15.5998125,36.5998125 L12.5998125,36.5998125 C5.6521875,36.5998125 0,30.9478125 0,24 C0,17.0521875 5.6521875,11.4001875 12.5998125,11.4001875 C13.355625,11.4001875 14.112375,11.46825 14.856375,11.6038125 C17.3533125,8.456625 21.1625625,6.5998125 25.199625,6.5998125 C29.262375,6.5998125 33.080625,8.4705 35.576625,11.644125 C36.3046875,11.482125 37.048875,11.4001875 37.800375,11.4001875 C41.346,11.4001875 44.59725,13.2225 46.454625,16.203375 Z M56.0544375,12.6035625 C61.56225,12.7389375 66,17.2610625 66,22.800375 C66,26.9896875 63.37275,30.816 59.4624375,32.3203125 C59.3203125,32.3745 59.175375,32.4001875 59.03175,32.4001875 C58.549875,32.4001875 58.095,32.107875 57.9110625,31.6310625 C57.673875,31.012125 57.982125,30.3178125 58.6003125,30.079875 C61.59075,28.9299375 63.5998125,26.004 63.5998125,22.800375 C63.5998125,18.4995 60.1010625,15 55.800375,15 C55.6816875,15 55.5579375,15.00375 55.422375,15.0095625 C54.9609375,15.03 54.5206875,14.7825 54.3039375,14.3701875 C52.9483125,11.797875 50.3026875,10.199625 47.4001875,10.199625 C46.6010625,10.199625 45.813,10.3205625 45.0564375,10.5585 C44.5524375,10.7175 44.0053125,10.5285 43.7071875,10.0935 C41.688,7.15425 38.358375,5.4001875 34.800375,5.4001875 C33.7419375,5.4001875 32.6975625,5.5524375 31.6948125,5.8535625 C31.05975,6.044625 30.391125,5.6835 30.200625,5.048625 C30.0103125,4.4135625 30.3706875,3.7449375 31.0048125,3.5544375 C32.231625,3.18675 33.5083125,3 34.800375,3 C38.862375,3 42.6804375,4.8706875 45.1771875,8.043375 C45.9045,7.8815625 46.6494375,7.800375 47.4001875,7.800375 C50.9458125,7.800375 54.1970625,9.6225 56.0544375,12.6035625 Z M20.4001875,33 C21.063,33 21.5998125,33.5375625 21.5998125,34.199625 L21.5998125,45 C21.5998125,45.6628125 21.063,46.199625 20.4001875,46.199625 C19.737375,46.199625 19.199625,45.6628125 19.199625,45 L19.199625,34.199625 C19.199625,33.5375625 19.737375,33 20.4001875,33 Z M20.4001875,48.5998125 C21.063,48.5998125 21.5998125,49.137375 21.5998125,49.800375 L21.5998125,52.199625 C21.5998125,52.862625 21.063,53.4001875 20.4001875,53.4001875 C19.737375,53.4001875 19.199625,52.862625 19.199625,52.199625 L19.199625,49.800375 C19.199625,49.137375 19.737375,48.5998125 20.4001875,48.5998125 Z M34.800375,42.5998125 C35.4624375,42.5998125 36,43.137375 36,43.800375 L36,46.199625 C36,46.862625 35.4624375,47.4001875 34.800375,47.4001875 C34.137375,47.4001875 33.5998125,46.862625 33.5998125,46.199625 L33.5998125,43.800375 C33.5998125,43.137375 34.137375,42.5998125 34.800375,42.5998125 Z M30,31.800375 C30.6628125,31.800375 31.199625,32.3371875 31.199625,33 L31.199625,43.800375 C31.199625,44.4624375 30.6628125,45 30,45 C29.3371875,45 28.800375,44.4624375 28.800375,43.800375 L28.800375,33 C28.800375,32.3371875 29.3371875,31.800375 30,31.800375 Z M30,47.4001875 C30.6628125,47.4001875 31.199625,47.937 31.199625,48.5998125 L31.199625,57 C31.199625,57.6628125 30.6628125,58.199625 30,58.199625 C29.3371875,58.199625 28.800375,57.6628125 28.800375,57 L28.800375,48.5998125 C28.800375,47.937 29.3371875,47.4001875 30,47.4001875 Z M25.199625,27 C25.862625,27 26.4001875,27.5375625 26.4001875,28.199625 L26.4001875,51 C26.4001875,51.6628125 25.862625,52.199625 25.199625,52.199625 C24.5375625,52.199625 24,51.6628125 24,51 L24,28.199625 C24,27.5375625 24.5375625,27 25.199625,27 Z M25.199625,54.5998125 C25.862625,54.5998125 26.4001875,55.137375 26.4001875,55.800375 L26.4001875,61.800375 C26.4001875,62.4624375 25.862625,63 25.199625,63 C24.5375625,63 24,62.4624375 24,61.800375 L24,55.800375 C24,55.137375 24.5375625,54.5998125 25.199625,54.5998125 Z M34.800375,30.5998125 C35.4624375,30.5998125 36,31.137375 36,31.800375 L36,39 C36,39.6628125 35.4624375,40.199625 34.800375,40.199625 C34.137375,40.199625 33.5998125,39.6628125 33.5998125,39 L33.5998125,31.800375 C33.5998125,31.137375 34.137375,30.5998125 34.800375,30.5998125 Z" id="Combined-Shape" fill="#000000"></path>
                </g>
            </g>
        </g>
    </g>
</svg>