<?xml version="1.0" encoding="UTF-8"?>
<svg width="66px" height="52px" viewBox="0 0 66 52" version="1.1" xmlns="http://www.w3.org/2000/svg" xmlns:xlink="http://www.w3.org/1999/xlink">
    <!-- Generator: Sketch 50.2 (55047) - http://www.bohemiancoding.com/sketch -->
    <title>photo-camera</title>
    <desc>Created with Sketch.</desc>
    <defs></defs>
    <g id="Trip-Dispatch-2.0" stroke="none" stroke-width="1" fill="none" fill-rule="evenodd" opacity="0.5">
        <g id="Home" transform="translate(-200.000000, -4011.000000)">
            <g id="Group-5" transform="translate(98.000000, 4004.000000)">
                <g id="photo-camera" transform="translate(102.000000, 0.000000)">
                    <rect id="frame" x="0" y="0" width="66" height="66"></rect>
                    <path d="M57.115213,10.8047089 L22.8458869,10.8047089 C22.8458869,8.70685752 21.137785,7 19.0384043,7 L13.9610999,7 C11.8617192,7 10.1536173,8.70685752 10.1536173,10.8047089 L8.884787,10.8047089 C3.98576927,10.8047089 0,14.7875746 0,19.6830235 L0,50.1226762 C0,55.0173324 3.98576927,59 8.884787,59 L57.115213,59 C62.0142307,59 66,55.0173324 66,50.1226762 L66,19.6830235 C66,14.7875746 62.0142307,10.8047089 57.115213,10.8047089 Z M13.9610999,9.53680287 L19.0384043,9.53680287 C19.7378674,9.53680287 20.3072347,10.1057554 20.3072347,10.8047089 L12.6922696,10.8047089 C12.6922696,10.1057554 13.2616368,9.53680287 13.9610999,9.53680287 Z M57.115213,56.464188 L8.884787,56.464188 C5.38548863,56.464188 2.53865223,53.6192273 2.53865223,50.1226762 L2.53865223,26.0245352 L12.6922696,26.0245352 C13.3933191,26.0245352 13.9610999,25.4563754 13.9610999,24.7566292 C13.9610999,24.0558922 13.3933191,23.4877324 12.6922696,23.4877324 L2.53865223,23.4877324 L2.53865223,19.6830235 C2.53865223,16.1862743 5.38548863,13.3415117 8.884787,13.3415117 L57.115213,13.3415117 C60.6145114,13.3415117 63.4613478,16.1862743 63.4613478,19.6830235 L63.4613478,23.4877324 L53.3077304,23.4877324 C52.6066809,23.4877324 52.0379085,24.0558922 52.0379085,24.7566292 C52.0379085,25.4563754 52.6066809,26.0245352 53.3077304,26.0245352 L63.4613478,26.0245352 L63.4613478,50.1226762 C63.4613478,53.6192273 60.6145114,56.464188 57.115213,56.464188 Z M32.9995042,15.8783146 C22.5020057,15.8783146 13.9610999,24.4128004 13.9610999,34.9028499 C13.9610999,45.3927012 22.5020057,53.9273851 32.9995042,53.9273851 C43.4979943,53.9273851 52.0379085,45.3927012 52.0379085,34.9028499 C52.0379085,24.4128004 43.4979943,15.8783146 32.9995042,15.8783146 Z M32.9995042,51.3905822 C23.9017251,51.3905822 16.4997521,43.9940015 16.4997521,34.9028499 C16.4997521,25.8109056 23.9017251,18.4151175 32.9995042,18.4151175 C42.0980766,18.4151175 49.5002479,25.8109056 49.5002479,34.9028499 C49.5002479,43.9940015 42.0980766,51.3905822 32.9995042,51.3905822 Z M32.9995042,20.9509295 C25.3016427,20.9509295 19.0384043,27.2096053 19.0384043,34.9028499 C19.0384043,42.5951036 25.3016427,48.8537794 32.9995042,48.8537794 C40.6983573,48.8537794 46.9615957,42.5951036 46.9615957,34.9028499 C46.9615957,27.2096053 40.6983573,20.9509295 32.9995042,20.9509295 Z M32.9995042,46.3169765 C26.7015604,46.3169765 21.5770566,41.1971966 21.5770566,34.9028499 C21.5770566,28.6085031 26.7015604,23.4877324 32.9995042,23.4877324 C39.2984396,23.4877324 44.4229434,28.6085031 44.4229434,34.9028499 C44.4229434,41.1971966 39.2984396,46.3169765 32.9995042,46.3169765 Z M32.9995042,26.0245352 C32.2992479,26.0245352 31.7306739,26.5926951 31.7306739,27.2924413 C31.7306739,27.9931783 32.2992479,28.5613381 32.9995042,28.5613381 C36.4988026,28.5613381 39.345639,31.4061007 39.345639,34.9028499 C39.345639,35.6033887 39.9144113,36.1707559 40.6154609,36.1707559 C41.3165105,36.1707559 41.8842912,35.6033887 41.8842912,34.9028499 C41.8842912,30.007401 37.8987203,26.0245352 32.9995042,26.0245352 Z M55.8463827,22.2198264 C57.9457634,22.2198264 59.6538652,20.5129688 59.6538652,18.4151175 C59.6538652,16.3164734 57.9457634,14.6094178 55.8463827,14.6094178 C53.7462087,14.6094178 52.0379085,16.3164734 52.0379085,18.4151175 C52.0379085,20.5129688 53.7462087,22.2198264 55.8463827,22.2198264 Z M55.8463827,17.1462206 C56.5458457,17.1462206 57.115213,17.7151731 57.115213,18.4151175 C57.115213,19.114071 56.5458457,19.6830235 55.8463827,19.6830235 C55.145928,19.6830235 54.5765608,19.114071 54.5765608,18.4151175 C54.5765608,17.7151731 55.145928,17.1462206 55.8463827,17.1462206 Z" id="Fill-1" fill="#031F33"></path>
                </g>
            </g>
        </g>
    </g>
</svg>