<?xml version="1.0" encoding="UTF-8"?>
<svg width="66px" height="41px" viewBox="0 0 66 41" version="1.1" xmlns="http://www.w3.org/2000/svg" xmlns:xlink="http://www.w3.org/1999/xlink">
    <!-- Generator: Sketch 50.2 (55047) - http://www.bohemiancoding.com/sketch -->
    <title>tickets</title>
    <desc>Created with Sketch.</desc>
    <defs></defs>
    <g id="Trip-Dispatch-2.0" stroke="none" stroke-width="1" fill="none" fill-rule="evenodd" opacity="0.5">
        <g id="Home" transform="translate(-800.000000, -4016.000000)">
            <g id="Group-4" transform="translate(698.000000, 4004.000000)">
                <g id="tickets" transform="translate(102.000000, 0.000000)">
                    <rect id="frame" x="0" y="0" width="66" height="66"></rect>
                    <path d="M23.5715601,37.7716116 L20.8035592,37.7716116 L16.2925519,31.2509643 C16.2853699,31.239433 16.2767147,31.2295491 16.2680595,31.21875 C16.2544322,31.2000804 16.2406208,31.1815938 16.2255202,31.1636563 C16.2118929,31.1464509 16.1967924,31.131442 16.1824285,31.1158839 C16.1708268,31.1036205 16.160146,31.0915402 16.1485444,31.0800089 C16.1314181,31.0635357 16.1133712,31.0477946 16.0945876,31.0315045 C16.0846433,31.0229018 16.0745149,31.013567 16.0636499,31.0049643 C16.0450505,30.9899554 16.0255303,30.9756786 16.0061942,30.9621339 C15.9945926,30.9535313 15.9831751,30.9449286 15.971021,30.937058 C15.9522375,30.9249777 15.9334539,30.9141786 15.9148544,30.9026473 C15.8997539,30.8947768 15.8861266,30.8863571 15.8710261,30.8784866 C15.8537157,30.8691518 15.8364053,30.8612813 15.819095,30.8534107 C15.8012321,30.8455402 15.7831852,30.8369375 15.7651382,30.829067 C15.7493011,30.8233929 15.7336481,30.8177188 15.7178109,30.8118616 C15.6975541,30.8047232 15.6774815,30.7975848 15.6566722,30.7911786 C15.640835,30.7869688 15.6249979,30.783308 15.6098974,30.7798304 C15.5881673,30.7739732 15.5666215,30.7690313 15.5450756,30.7648214 C15.5270286,30.7611607 15.5084292,30.7589643 15.4903822,30.7562188 C15.4710462,30.7532902 15.4522626,30.7503616 15.4321899,30.7483482 C15.406961,30.7461518 15.381732,30.7454196 15.3559506,30.7446875 C15.344349,30.7439554 15.3336682,30.7424911 15.3213299,30.7424911 L12.8174041,30.7424911 C12.801567,30.7424911 12.7864664,30.7446875 12.7713659,30.7454196 C12.7496359,30.7461518 12.72809,30.7461518 12.7065441,30.7483482 C12.6813152,30.7503616 12.6575595,30.7547545 12.6338038,30.7582321 C12.6209131,30.7604286 12.6080224,30.7611607 12.5951317,30.7633571 C12.5936584,30.7640893 12.5914486,30.7648214 12.5892388,30.7653705 C12.5612476,30.7704955 12.5345454,30.7776339 12.5072908,30.7855045 C12.4964258,30.78825 12.4850083,30.7904464 12.4741433,30.793375 C12.4490985,30.8012455 12.4253428,30.8105804 12.4008505,30.819 C12.3885122,30.824125 12.3748849,30.8283348 12.3627308,30.8334598 C12.3446838,30.8405982 12.3273735,30.84975 12.3102473,30.8576205 C12.2922003,30.8662232 12.2741533,30.8740938 12.2570271,30.8834286 C12.2476353,30.8883705 12.2389801,30.8942277 12.2295883,30.8999018 C12.205096,30.9134464 12.1807878,30.9269911 12.1583212,30.9427321 C12.1570321,30.9434643 12.1555589,30.9449286 12.1540857,30.9456607 C12.0929469,30.9870268 12.0353071,31.03425 11.9835602,31.085683 C11.9828236,31.0871473 11.982087,31.0878795 11.9807979,31.0893438 C11.9555689,31.1144196 11.9310766,31.1407768 11.9080575,31.1687813 C11.8944302,31.1850714 11.8815395,31.2037411 11.8684647,31.2216786 C11.8590729,31.2330268 11.8498652,31.2452902 11.8412101,31.2573705 C11.8224265,31.2844598 11.8058527,31.3124643 11.7894631,31.3410179 C11.7872533,31.3452277 11.7843068,31.3488884 11.782097,31.3530982 C11.7677331,31.3796384 11.7548424,31.4067277 11.7426883,31.4347321 C11.7390052,31.4411384 11.7355063,31.4475446 11.7325599,31.454683 C11.7231681,31.4760982 11.7159861,31.4982455 11.7080676,31.5203929 C11.7030954,31.5341205 11.6973867,31.5483973 11.6922304,31.561942 C11.6872583,31.577683 11.6843119,31.5941563 11.6800763,31.6098973 C11.673631,31.6313125 11.6677381,31.6527277 11.662766,31.674875 C11.6605561,31.6856741 11.6590829,31.6970223 11.6577938,31.7078214 C11.6526376,31.7356429 11.6476654,31.7636473 11.644719,31.7914688 C11.6439824,31.8000714 11.6434299,31.8094063 11.6426933,31.818558 C11.6404835,31.8485759 11.6382737,31.8785938 11.6382737,31.9093438 L11.6382737,31.9144688 C11.6382737,31.9265491 11.6397469,31.9380804 11.6397469,31.9501607 C11.6404835,31.9752366 11.6412201,32.0003125 11.6434299,32.0252054 C11.6454556,32.048817 11.6498753,32.0716964 11.6533742,32.0945759 C11.655584,32.1081205 11.6563206,32.1211161 11.6590829,32.1346607 L11.6620294,32.1482054 C11.6620294,32.1496696 11.6620294,32.1504018 11.662766,32.1518661 L12.7454004,37.7716116 L9.9169973,37.7716116 L7.90494367,35.7717634 C7.8970251,35.7638929 7.88836991,35.7574866 7.88045134,35.7496161 C7.86037869,35.7309464 7.84012188,35.7117277 7.81931261,35.6945223 C7.80347547,35.6817098 7.78763832,35.6709107 7.77180118,35.6595625 C7.75670065,35.6480313 7.74160012,35.636683 7.72649959,35.6258839 C7.70845261,35.6145357 7.69058979,35.6044688 7.67254282,35.5936696 C7.65744228,35.585067 7.64234175,35.575183 7.62724122,35.5673125 C7.60993086,35.5579777 7.59206804,35.5501071 7.57402106,35.5415045 C7.5567107,35.5336339 7.53940033,35.5250313 7.52227412,35.5178929 C7.50570037,35.5107545 7.48839,35.5058125 7.47181625,35.4994063 C7.4524802,35.4922679 7.43296001,35.4851295 7.41288735,35.4785402 C7.39705021,35.4743304 7.38047645,35.4706696 7.36463931,35.4664598 C7.34309343,35.4615179 7.32302078,35.4551116 7.30129074,35.4514509 C7.28342792,35.4477902 7.26538095,35.4457768 7.24733397,35.4428482 C7.22726131,35.4399196 7.20792527,35.436442 7.18693185,35.4342455 C7.1574674,35.4315 7.12726634,35.4307679 7.09780189,35.4300357 C7.08841009,35.4300357 7.08049152,35.4285714 7.07109973,35.4285714 C7.0626287,35.4285714 7.05397352,35.4300357 7.04531833,35.4300357 C7.01585388,35.4307679 6.98565282,35.4315 6.95600422,35.4342455 C6.93593156,35.436442 6.91585891,35.4399196 6.8956021,35.4428482 C6.87773927,35.4457768 6.8596923,35.4477902 6.84164532,35.4514509 C6.82083605,35.4556607 6.80002679,35.4615179 6.77903337,35.4664598 C6.76264376,35.4706696 6.74607001,35.4743304 6.73023287,35.4792723 C6.71016021,35.4851295 6.69064001,35.4922679 6.67130397,35.4994063 C6.65473022,35.5058125 6.63741985,35.5114866 6.6208461,35.5178929 C6.60353573,35.5250313 6.58640952,35.5336339 6.56909916,35.5415045 C6.55105218,35.5501071 6.53374182,35.5579777 6.51661561,35.5673125 C6.50077846,35.5759152 6.48567793,35.585067 6.4705774,35.5944018 C6.45253043,35.6044688 6.43448345,35.6152679 6.41735724,35.6266161 C6.4015201,35.636683 6.38641957,35.6480313 6.37205565,35.6595625 C6.35548189,35.6709107 6.33964475,35.682442 6.32454422,35.6945223 C6.30299834,35.7117277 6.28274153,35.7309464 6.26266888,35.7496161 C6.25475031,35.7574866 6.24609512,35.7638929 6.23817655,35.7717634 C6.23025798,35.7803661 6.22307602,35.7889688 6.21515745,35.7975714 C6.19637386,35.8167902 6.17777443,35.836192 6.16120068,35.856875 C6.14757337,35.8733482 6.13597174,35.8903705 6.12308104,35.9068438 C6.11295264,35.9211205 6.10227178,35.9348482 6.09214337,35.949125 C6.07998929,35.9676116 6.06912427,35.9870134 6.0577068,36.0062321 C6.04905161,36.0197768 6.04039643,36.0335045 6.03321447,36.0470491 C6.02234946,36.0662679 6.01369427,36.0856696 6.00503909,36.1048884 C5.99785713,36.1206295 5.98993856,36.1356384 5.98349321,36.1513795 C5.97557464,36.1700491 5.96912929,36.1892679 5.96268394,36.2079375 C5.9562386,36.2251429 5.94979325,36.2421652 5.94390036,36.2593705 C5.93819162,36.2787723 5.9339561,36.2979911 5.92953644,36.3166607 C5.92456431,36.3351473 5.91959219,36.3523527 5.91590913,36.3708393 C5.91167361,36.3931696 5.90946378,36.415317 5.90578072,36.4374643 C5.90375504,36.4532054 5.9008086,36.4682143 5.89933538,36.4839554 C5.89509986,36.523125 5.89289003,36.5617455 5.89289003,36.6010982 L5.89289003,41.2857143 C5.89289003,41.3093259 5.89509986,41.3329375 5.89657308,41.3565491 C5.87557966,41.6810714 5.98864949,42.012183 6.23817655,42.2601964 C6.46836757,42.4889911 6.76982572,42.6033884 7.07109973,42.6033884 C7.37329449,42.6033884 7.67475265,42.4889911 7.90494367,42.2601964 L10.0643196,40.1146518 L12.7454004,40.1146518 L11.662766,45.7343973 C11.6620294,45.7351295 11.6620294,45.7364107 11.6620294,45.737875 L11.6590829,45.7508705 C11.6563206,45.7644152 11.655584,45.7779598 11.6533742,45.7915045 C11.6498753,45.8143839 11.6461922,45.8372634 11.6439824,45.8601429 C11.6412201,45.8859509 11.6404835,45.9110268 11.6397469,45.9359196 C11.6397469,45.948183 11.6382737,45.9595313 11.6382737,45.9717946 C11.6382737,45.9730759 11.6390103,45.9745402 11.6390103,45.9767366 C11.6390103,46.0067545 11.6412201,46.0375045 11.6434299,46.0675223 C11.6439824,46.076125 11.6439824,46.0854598 11.644719,46.0946116 C11.6484021,46.1226161 11.6526376,46.1497054 11.6577938,46.1777098 C11.6598195,46.189058 11.6612928,46.1998571 11.6635026,46.2104732 C11.6677381,46.2326205 11.6743676,46.2542188 11.6800763,46.2756339 C11.6843119,46.2921071 11.6879949,46.3078482 11.692967,46.3234063 C11.6973867,46.3378661 11.7038321,46.3514107 11.7080676,46.3656875 C11.7167227,46.3878348 11.7239047,46.4099821 11.7332965,46.4313973 C11.7360588,46.4378036 11.7397419,46.445125 11.7426883,46.4515313 C11.755579,46.4793527 11.7684697,46.506442 11.7828336,46.5329821 C11.7850434,46.537192 11.7879899,46.5408527 11.7900156,46.5443304 C11.8058527,46.573067 11.8231631,46.6016205 11.8419467,46.6287098 C11.8498652,46.6409732 11.8598095,46.6523214 11.8684647,46.6645848 C11.882092,46.6823393 11.8944302,46.7002768 11.9087941,46.7174821 C11.9318132,46.7453036 11.9563056,46.7711116 11.9813503,46.7967366 C11.982087,46.7974688 11.9828236,46.798933 11.9842968,46.7996652 C12.0360437,46.8518304 12.0929469,46.8983214 12.1548223,46.9398705 C12.1562955,46.9411518 12.1570321,46.9418839 12.1583212,46.9433482 C12.1813403,46.9583571 12.2058326,46.9719018 12.2295883,46.9863616 C12.2389801,46.9913036 12.2476353,46.9977098 12.2575796,47.0026518 C12.2748899,47.0119866 12.2929369,47.0198571 12.3102473,47.0277277 C12.3281101,47.0363304 12.3454205,47.044933 12.3634674,47.0528036 C12.3756215,47.0577455 12.3885122,47.0621384 12.4015871,47.0663482 C12.4253428,47.075683 12.4496509,47.0850179 12.4748799,47.0921563 C12.4857449,47.0956339 12.4964258,47.0978304 12.5072908,47.1007589 C12.5345454,47.1078973 12.5619842,47.1150357 12.5899754,47.1207098 C12.5914486,47.121442 12.5936584,47.1221741 12.5956841,47.1221741 C12.6137311,47.1256518 12.6310415,47.1271161 12.6490884,47.1300446 C12.6662147,47.132058 12.6842616,47.1357188 12.7023086,47.137183 C12.7411649,47.1413929 12.7798369,47.1435893 12.8186932,47.1435893 L12.8253227,47.1435893 L15.3193042,47.1435893 L15.3205933,47.1435893 C15.3242764,47.1435893 15.3277753,47.1428571 15.3314583,47.1428571 C15.3725244,47.1428571 15.4126697,47.1399286 15.4529992,47.1357188 C15.4646008,47.1342545 15.4760183,47.132058 15.4881724,47.1307768 C15.5205833,47.1256518 15.5529942,47.1199777 15.5846684,47.1128393 C15.5968225,47.1106429 15.6091608,47.1071652 15.6220515,47.1035045 C15.6522525,47.0956339 15.6824536,47.0862991 15.711918,47.0764152 C15.7249929,47.0720223 15.737147,47.0670804 15.7500377,47.0626875 C15.7796863,47.0513393 15.8084141,47.0385268 15.8364053,47.0247991 C15.848007,47.019125 15.8594244,47.014183 15.8710261,47.0077768 C15.9091457,46.988375 15.9457921,46.9669598 15.9809653,46.9433482 C15.9881473,46.9384063 15.9953292,46.932 16.0025112,46.926875 C16.0306866,46.9069241 16.0572046,46.8869732 16.0831701,46.8646429 C16.0960608,46.8547589 16.108399,46.8424955 16.1205531,46.8318795 C16.1413624,46.8124777 16.1616192,46.7925268 16.1809553,46.7718438 C16.1918203,46.7603125 16.2025011,46.7489643 16.2133661,46.7367009 C16.2371219,46.7088795 16.260141,46.6803259 16.2816868,46.650308 C16.2853699,46.645183 16.2896054,46.6409732 16.2932885,46.6358482 L20.8035592,40.1146518 L23.5715601,40.1146518 C24.2225403,40.1146518 24.7497698,39.5897054 24.7497698,38.9426741 C24.7497698,38.2956429 24.2225403,37.7716116 23.5715601,37.7716116 Z M14.2423786,33.0855313 L14.7012874,33.0855313 L17.9427452,37.7716116 L15.1450957,37.7716116 L14.2423786,33.0855313 Z M17.9427452,40.1146518 L14.7012874,44.799817 L14.2423786,44.799817 L15.1450957,40.1146518 L17.9427452,40.1146518 Z M40.0720205,43.6287545 L30.6426598,43.6287545 C29.9924163,43.6287545 29.4644501,44.1527857 29.4644501,44.799817 C29.4644501,45.4468482 29.9924163,45.9717946 30.6426598,45.9717946 L40.0720205,45.9717946 C40.7222641,45.9717946 41.2502302,45.4468482 41.2502302,44.799817 C41.2502302,44.1527857 40.7222641,43.6287545 40.0720205,43.6287545 Z M40.0720205,37.7716116 L30.6426598,37.7716116 C29.9924163,37.7716116 29.4644501,38.2956429 29.4644501,38.9426741 C29.4644501,39.5897054 29.9924163,40.1146518 30.6426598,40.1146518 L40.0720205,40.1146518 C40.7222641,40.1146518 41.2502302,39.5897054 41.2502302,38.9426741 C41.2502302,38.2956429 40.7222641,37.7716116 40.0720205,37.7716116 Z M30.6426598,34.2575089 L40.0720205,34.2575089 C40.7222641,34.2575089 41.2502302,33.7325625 41.2502302,33.0855312 C41.2502302,32.4385 40.7222641,31.9144687 40.0720205,31.9144687 L30.6426598,31.9144687 C29.9924163,31.9144687 29.4644501,32.4385 29.4644501,33.0855312 C29.4644501,33.7325625 29.9924163,34.2575089 30.6426598,34.2575089 Z M53.0360102,36.5996339 C52.3850301,36.5996339 51.8578005,37.1245804 51.8578005,37.7716116 L51.8578005,45.9717946 C51.8578005,46.6180937 52.3850301,47.1428571 53.0360102,47.1428571 C53.6869904,47.1428571 54.2142199,46.6180937 54.2142199,45.9717946 L54.2142199,37.7716116 C54.2142199,37.1245804 53.6869904,36.5996339 53.0360102,36.5996339 Z M53.0360102,30.7424911 C52.3850301,30.7424911 51.8578005,31.2674375 51.8578005,31.9144688 L51.8578005,33.0855313 C51.8578005,33.7325625 52.3850301,34.2575089 53.0360102,34.2575089 C53.6869904,34.2575089 54.2142199,33.7325625 54.2142199,33.0855313 L54.2142199,31.9144688 C54.2142199,31.2674375 53.6869904,30.7424911 53.0360102,30.7424911 Z M60.10711,12 L10.6075704,12 C7.35819396,12 4.71468033,14.6274777 4.71468033,17.8571429 L4.71468033,25.0034063 C2.02789078,25.5483036 0,27.9140402 0,30.7424911 L0,47.1428571 C0,50.3725223 2.64351364,53 5.89289003,53 L55.3933504,53 C58.6425426,53 61.2862404,50.3725223 61.2862404,47.1428571 L61.2862404,39.9965938 C63.9722934,39.4516964 66,37.0859598 66,34.2575089 L66,17.8571429 C66,14.6274777 63.3564864,12 60.10711,12 Z M2.35734016,47.1428571 L2.35734016,30.7424911 C2.35734016,28.804875 3.94344835,27.2283884 5.89289003,27.2283884 L24.895803,27.2283884 L24.8980128,27.2283884 L24.9002227,27.2283884 L45.9649105,27.2283884 L45.9649105,50.6569598 L5.89289003,50.6569598 C3.94344835,50.6569598 2.35734016,49.0804732 2.35734016,47.1428571 Z M18.9568748,20.200183 L19.4159677,20.200183 L22.6565048,24.8853482 L19.859776,24.8853482 L18.9568748,20.200183 Z M58.9289003,47.1428571 C58.9289003,49.0804732 57.3427921,50.6569598 55.3933504,50.6569598 L48.3213299,50.6569598 L48.3213299,27.2283884 L55.3933504,27.2283884 C57.3427921,27.2283884 58.9289003,28.804875 58.9289003,30.7424911 L58.9289003,47.1428571 Z M63.6435806,34.2575089 C63.6435806,35.7838438 62.6579947,37.086692 61.2862404,37.5699063 L61.2862404,30.7424911 C61.2862404,28.830683 60.359031,27.1297321 58.9289003,26.0600714 L58.9289003,24.8853482 C58.9289003,24.2390491 58.4009342,23.7142857 57.7506906,23.7142857 C57.0995262,23.7142857 56.5715601,24.2390491 56.5715601,24.8853482 L56.5715601,25.0034062 C56.1911004,24.9261652 55.7968292,24.8853482 55.3933504,24.8853482 L25.5173187,24.8853482 L21.007048,18.3647009 C20.9991295,18.3540848 20.9904743,18.3440179 20.9825557,18.3334018 C20.9689284,18.3147321 20.9553011,18.2955134 20.9402006,18.2775759 C20.9265733,18.2611027 20.9114727,18.2460937 20.8971088,18.2310848 C20.8855072,18.2190045 20.8746422,18.2060089 20.8632247,18.1946607 C20.8459143,18.1781875 20.8280515,18.1624464 20.8107411,18.1474375 C20.7991395,18.1381027 20.7891953,18.1280357 20.7775936,18.1188839 C20.7595466,18.1046071 20.7409472,18.0908795 20.721427,18.0773348 C20.7092729,18.0687321 20.6978555,18.0593973 20.6847806,18.0515268 C20.6669178,18.0394464 20.6488708,18.0288304 20.6300872,18.0180312 C20.6149867,18.0094286 20.5998862,18.0000937 20.5847856,17.9922232 C20.5682119,17.9836205 20.5518223,17.9764821 20.5345119,17.9686116 C20.5164649,17.9600089 20.4978655,17.9508571 20.4790819,17.9437187 C20.4639814,17.9373125 20.4488809,17.9321875 20.4337803,17.9272455 C20.4129711,17.919375 20.3919776,17.9122366 20.3696951,17.9058304 C20.3553312,17.9014375 20.3409673,17.8979598 20.3258668,17.8942991 C20.3035843,17.888625 20.2820384,17.8829509 20.2590193,17.878558 C20.2417089,17.8758125 20.2243986,17.8736161 20.2070882,17.8706875 C20.1870156,17.867942 20.1669429,17.8642812 20.1466861,17.862817 C20.1223779,17.8600714 20.0978856,17.8600714 20.0741299,17.8586071 C20.0612392,17.8586071 20.0489009,17.8571429 20.0360102,17.8571429 L17.5311637,17.8571429 C17.5160631,17.8571429 17.5009626,17.8586071 17.4858621,17.8593393 C17.4643162,17.8608036 17.4427703,17.8608036 17.4204878,17.862817 C17.3959955,17.8650134 17.3722398,17.8692232 17.3477475,17.8728839 C17.3348568,17.8750804 17.3225185,17.8758125 17.3096278,17.8778259 C17.307418,17.878558 17.3061289,17.8792902 17.3039191,17.8792902 C17.2757437,17.8849643 17.2484891,17.8921027 17.2219711,17.8992411 C17.2103695,17.9021696 17.1995045,17.9043661 17.1888236,17.9078437 C17.1635947,17.9149821 17.1398389,17.924317 17.1153466,17.9336518 C17.1024559,17.9378616 17.0895652,17.9422545 17.077227,17.9471964 C17.0593642,17.955067 17.0420538,17.9636696 17.0240068,17.9722723 C17.0068806,17.980875 16.9888336,17.9887455 16.9715233,17.9973482 C16.9621315,18.0030223 16.9529238,18.0086964 16.9435321,18.0136384 C16.9197763,18.0280982 16.895284,18.0416429 16.8730015,18.0573839 C16.8707917,18.0581161 16.8700551,18.0588482 16.868766,18.0601295 C16.8068907,18.1016786 16.7499874,18.1489018 16.6982405,18.2003348 C16.6967673,18.201067 16.6960307,18.2025312 16.6952941,18.2032634 C16.6700651,18.2288884 16.645757,18.2554286 16.6227379,18.2825179 C16.6089264,18.2997232 16.5960357,18.3176607 16.5824084,18.3354152 C16.5737532,18.3476786 16.5643614,18.3590268 16.5557062,18.3718393 C16.5371068,18.3991116 16.520533,18.426933 16.5039593,18.4556696 C16.5017495,18.4591473 16.4989872,18.4633571 16.4967773,18.4670179 C16.4824134,18.493558 16.4695227,18.5213795 16.4571845,18.5484687 C16.4536856,18.5556071 16.4500025,18.5621964 16.4470561,18.5693348 C16.4378484,18.5900179 16.4306665,18.6128973 16.4227479,18.6343125 C16.4175916,18.6485893 16.4118829,18.6621339 16.4069108,18.6765937 C16.4017545,18.6921518 16.3982556,18.708625 16.3938359,18.7243661 C16.3881272,18.7457812 16.3816818,18.7673795 16.3774463,18.7895268 C16.3752365,18.8001429 16.3737632,18.8116741 16.3715534,18.8222902 C16.3665813,18.8502946 16.3623458,18.8773839 16.3593993,18.9059375 C16.3579261,18.9145402 16.3579261,18.923875 16.3571895,18.9332098 C16.3549797,18.9632277 16.352954,18.9932455 16.352954,19.0232634 C16.352954,19.0254598 16.3522174,19.0269241 16.3522174,19.0289375 C16.3522174,19.0404687 16.3536906,19.0525491 16.3544272,19.0640804 C16.3549797,19.0897054 16.3557163,19.1147812 16.3579261,19.1398571 C16.3601359,19.1627366 16.3643715,19.1856161 16.3680545,19.2084955 C16.3702643,19.2220402 16.3708168,19.2355848 16.3737632,19.2491295 L16.3759731,19.2628571 C16.3767097,19.2635893 16.3767097,19.2648705 16.3767097,19.2663348 L17.4598965,24.8853482 L14.6314935,24.8853482 L12.6194398,22.885683 C12.6115213,22.8785446 12.6030502,22.8714062 12.5951317,22.8640848 C12.5748749,22.8448661 12.5548022,22.8261964 12.5332563,22.8091741 C12.5181558,22.7961786 12.501582,22.7855625 12.4857449,22.7732991 C12.4706444,22.762683 12.4562804,22.7511518 12.4404433,22.7405357 C12.4231329,22.7290045 12.405086,22.7189375 12.3872231,22.7083214 C12.3721226,22.6989866 12.3570221,22.6896518 12.3411849,22.6810491 C12.3238746,22.6718973 12.3058276,22.6640268 12.2885172,22.6561562 C12.271391,22.6475536 12.2540807,22.639683 12.2367703,22.6318125 C12.2201965,22.6254062 12.2030703,22.6197321 12.1864966,22.613875 C12.1669764,22.6067366 12.1476403,22.5988661 12.1273835,22.593192 C12.1117305,22.58825 12.0951568,22.5845893 12.078583,22.5811116 C12.0577738,22.5752545 12.0367803,22.5695804 12.0152345,22.5653705 C11.9979241,22.5617098 11.9800613,22.5595134 11.9620143,22.5575 C11.9419416,22.5545714 11.9216848,22.5503616 11.9016122,22.5488973 C11.8721477,22.5452366 11.8419467,22.5445045 11.8124822,22.5437723 C11.8030904,22.5437723 11.7944352,22.5432232 11.7857801,22.5432232 C11.7771249,22.5432232 11.7684697,22.5437723 11.7598145,22.5437723 C11.7296134,22.5445045 11.700149,22.5459687 11.6699479,22.5488973 C11.6498753,22.5503616 11.6303551,22.5545714 11.6102824,22.5575 C11.5922354,22.5602455 11.5743726,22.5617098 11.5563256,22.5653705 C11.5347798,22.5695804 11.5137863,22.5752545 11.4929771,22.5811116 C11.4771399,22.5853214 11.4605662,22.58825 11.4441766,22.593192 C11.4246564,22.5995982 11.4053203,22.6067366 11.3858001,22.613875 C11.3684898,22.6197321 11.3521002,22.6254062 11.3355264,22.6325446 C11.3174795,22.639683 11.3009057,22.6482857 11.2835953,22.6561562 C11.2657325,22.6647589 11.2476855,22.6718973 11.2303752,22.6817813 C11.214538,22.6896518 11.2001741,22.6997187 11.184337,22.7083214 C11.1672108,22.7189375 11.1484272,22.7290045 11.1311168,22.7405357 C11.1160163,22.7511518 11.1009157,22.762683 11.0858152,22.7740312 C11.0699781,22.7855625 11.0541409,22.7961786 11.0383038,22.8091741 C11.0174945,22.8261964 10.9974219,22.8455982 10.9771651,22.8640848 C10.9692465,22.8719554 10.9607755,22.8785446 10.9528569,22.8864152 C10.9442017,22.8942857 10.9377563,22.9034375 10.9291012,22.9120402 C10.9110542,22.931442 10.8922706,22.9506607 10.8751444,22.9713437 C10.8613329,22.987817 10.8499155,23.0042902 10.8377614,23.0214955 C10.8268964,23.0357723 10.8160313,23.0485848 10.8068237,23.0635937 C10.7937488,23.0822634 10.783068,23.1014821 10.7714664,23.1201518 C10.7635478,23.1336964 10.7548926,23.1472411 10.746974,23.1615179 C10.7370298,23.1809196 10.7283746,23.2001384 10.7189828,23.2195402 C10.7118008,23.2345491 10.7038823,23.2502902 10.6974369,23.2660312 C10.6895184,23.2845179 10.6838096,23.3031875 10.6766277,23.3216741 C10.6707348,23.3396116 10.6635528,23.3560848 10.6585807,23.3740223 C10.6528719,23.3925089 10.6484523,23.4119107 10.6434802,23.4311295 C10.6390605,23.449067 10.6340884,23.4668214 10.6305895,23.4847589 C10.6261698,23.5069062 10.6234075,23.5297857 10.6204611,23.551933 C10.6182512,23.5676741 10.6147523,23.582683 10.6132791,23.5984241 C10.609596,23.6370446 10.6075704,23.6763973 10.6075704,23.7150179 L10.6075704,24.8853482 L7.07109973,24.8853482 L7.07109973,17.8571429 C7.07109973,15.9195268 8.65739206,14.3430402 10.6075704,14.3430402 L50.6786701,14.3430402 L50.6786701,21.3712455 C50.6786701,22.0182768 51.2066362,22.5432232 51.8578005,22.5432232 C52.5080441,22.5432232 53.0360102,22.0182768 53.0360102,21.3712455 L53.0360102,14.3430402 L60.10711,14.3430402 C62.0572883,14.3430402 63.6435806,15.9195268 63.6435806,17.8571429 L63.6435806,34.2575089 Z M44.7857801,19.0282054 L35.3573402,19.0282054 C34.70636,19.0282054 34.1791305,19.5531518 34.1791305,20.200183 C34.1791305,20.8472143 34.70636,21.3712455 35.3573402,21.3712455 L44.7857801,21.3712455 C45.4367602,21.3712455 45.9649105,20.8472143 45.9649105,20.200183 C45.9649105,19.5531518 45.4367602,19.0282054 44.7857801,19.0282054 Z M57.7506906,17.8571429 C57.0995262,17.8571429 56.5715601,18.3819063 56.5715601,19.0282054 L56.5715601,20.200183 C56.5715601,20.8472143 57.0995262,21.3712455 57.7506906,21.3712455 C58.4009342,21.3712455 58.9289003,20.8472143 58.9289003,20.200183 L58.9289003,19.0282054 C58.9289003,18.3819063 58.4009342,17.8571429 57.7506906,17.8571429 Z" id="Fill-1" fill="#031F33"></path>
                </g>
            </g>
        </g>
    </g>
</svg>